<svg width="320" height="303" viewBox="0 0 320 303" fill="none" xmlns="http://www.w3.org/2000/svg">
<path d="M310.37 3.34741L317.87 7.67754L310.37 12.0077L310.37 3.34741Z" fill="#14D6A1"/>
<path d="M213.37 144.517L220.87 148.847L213.37 153.178L213.37 144.517Z" fill="#14D6A1"/>
<path d="M243.51 140.393V157.847H241.916V142.063H241.814L237.723 144.782V143.129L241.848 140.393H243.51ZM254.232 158.086C253.004 158.086 251.956 157.734 251.087 157.029C250.223 156.319 249.558 155.293 249.092 153.953C248.632 152.612 248.402 151.001 248.402 149.12C248.402 147.245 248.632 145.64 249.092 144.305C249.558 142.964 250.226 141.938 251.095 141.228C251.97 140.512 253.016 140.154 254.232 140.154C255.448 140.154 256.49 140.512 257.36 141.228C258.235 141.938 258.902 142.964 259.362 144.305C259.828 145.64 260.061 147.245 260.061 149.12C260.061 151.001 259.828 152.612 259.362 153.953C258.902 155.293 258.237 156.319 257.368 157.029C256.504 157.734 255.459 158.086 254.232 158.086ZM254.232 156.654C255.578 156.654 256.629 155.998 257.385 154.685C258.141 153.367 258.519 151.512 258.519 149.12C258.519 147.529 258.345 146.171 257.999 145.046C257.658 143.916 257.166 143.052 256.524 142.455C255.888 141.859 255.124 141.56 254.232 141.56C252.896 141.56 251.848 142.225 251.087 143.555C250.325 144.879 249.945 146.734 249.945 149.12C249.945 150.711 250.115 152.069 250.456 153.194C250.803 154.319 251.294 155.177 251.931 155.768C252.573 156.359 253.34 156.654 254.232 156.654ZM268.95 158.086C267.723 158.086 266.675 157.734 265.806 157.029C264.942 156.319 264.277 155.293 263.811 153.953C263.351 152.612 263.121 151.001 263.121 149.12C263.121 147.245 263.351 145.64 263.811 144.305C264.277 142.964 264.945 141.938 265.814 141.228C266.689 140.512 267.735 140.154 268.95 140.154C270.166 140.154 271.209 140.512 272.078 141.228C272.953 141.938 273.621 142.964 274.081 144.305C274.547 145.64 274.78 147.245 274.78 149.12C274.78 151.001 274.547 152.612 274.081 153.953C273.621 155.293 272.956 156.319 272.087 157.029C271.223 157.734 270.178 158.086 268.95 158.086ZM268.95 156.654C270.297 156.654 271.348 155.998 272.104 154.685C272.86 153.367 273.237 151.512 273.237 149.12C273.237 147.529 273.064 146.171 272.717 145.046C272.377 143.916 271.885 143.052 271.243 142.455C270.607 141.859 269.842 141.56 268.95 141.56C267.615 141.56 266.567 142.225 265.806 143.555C265.044 144.879 264.663 146.734 264.663 149.12C264.663 150.711 264.834 152.069 265.175 153.194C265.521 154.319 266.013 155.177 266.649 155.768C267.291 156.359 268.058 156.654 268.95 156.654ZM283.669 158.086C282.442 158.086 281.394 157.734 280.524 157.029C279.661 156.319 278.996 155.293 278.53 153.953C278.07 152.612 277.84 151.001 277.84 149.12C277.84 147.245 278.07 145.64 278.53 144.305C278.996 142.964 279.663 141.938 280.533 141.228C281.408 140.512 282.453 140.154 283.669 140.154C284.885 140.154 285.928 140.512 286.797 141.228C287.672 141.938 288.34 142.964 288.8 144.305C289.266 145.64 289.499 147.245 289.499 149.12C289.499 151.001 289.266 152.612 288.8 153.953C288.34 155.293 287.675 156.319 286.806 157.029C285.942 157.734 284.896 158.086 283.669 158.086ZM283.669 156.654C285.016 156.654 286.067 155.998 286.823 154.685C287.578 153.367 287.956 151.512 287.956 149.12C287.956 147.529 287.783 146.171 287.436 145.046C287.095 143.916 286.604 143.052 285.962 142.455C285.325 141.859 284.561 141.56 283.669 141.56C282.334 141.56 281.286 142.225 280.524 143.555C279.763 144.879 279.382 146.734 279.382 149.12C279.382 150.711 279.553 152.069 279.894 153.194C280.24 154.319 280.732 155.177 281.368 155.768C282.01 156.359 282.777 156.654 283.669 156.654ZM301.797 154.609V153.816C301.797 153.163 301.928 152.575 302.189 152.052C302.45 151.524 302.823 151.106 303.306 150.799C303.788 150.492 304.362 150.339 305.027 150.339C305.698 150.339 306.271 150.492 306.749 150.799C307.226 151.106 307.592 151.524 307.848 152.052C308.104 152.575 308.232 153.163 308.232 153.816V154.609C308.232 155.262 308.101 155.85 307.84 156.373C307.584 156.896 307.217 157.313 306.74 157.626C306.263 157.933 305.692 158.086 305.027 158.086C304.351 158.086 303.771 157.933 303.288 157.626C302.811 157.313 302.442 156.896 302.181 156.373C301.925 155.85 301.797 155.262 301.797 154.609ZM303.135 153.816V154.609C303.135 155.251 303.291 155.799 303.604 156.254C303.922 156.703 304.396 156.927 305.027 156.927C305.641 156.927 306.104 156.703 306.416 156.254C306.729 155.799 306.885 155.251 306.885 154.609V153.816C306.885 153.174 306.732 152.629 306.425 152.18C306.118 151.725 305.652 151.498 305.027 151.498C304.408 151.498 303.936 151.725 303.612 152.18C303.294 152.629 303.135 153.174 303.135 153.816ZM293.002 144.424V143.632C293.002 142.978 293.132 142.39 293.394 141.867C293.655 141.345 294.027 140.93 294.51 140.623C294.993 140.31 295.567 140.154 296.232 140.154C296.902 140.154 297.476 140.31 297.953 140.623C298.431 140.93 298.797 141.345 299.053 141.867C299.308 142.39 299.436 142.978 299.436 143.632V144.424C299.436 145.078 299.306 145.668 299.044 146.197C298.788 146.72 298.422 147.134 297.945 147.441C297.467 147.748 296.896 147.901 296.232 147.901C295.556 147.901 294.976 147.748 294.493 147.441C294.016 147.134 293.646 146.72 293.385 146.197C293.129 145.668 293.002 145.078 293.002 144.424ZM294.34 143.632V144.424C294.34 145.066 294.496 145.614 294.808 146.069C295.127 146.518 295.601 146.742 296.232 146.742C296.845 146.742 297.308 146.518 297.621 146.069C297.933 145.614 298.09 145.066 298.09 144.424V143.632C298.09 142.989 297.936 142.444 297.629 141.995C297.323 141.541 296.857 141.313 296.232 141.313C295.612 141.313 295.141 141.541 294.817 141.995C294.499 142.444 294.34 142.989 294.34 143.632ZM293.786 157.847L305.777 140.393H307.286L295.294 157.847H293.786Z" fill="#14D6A1"/>
<path d="M4.36992 280.517L11.8699 284.847L4.36992 289.178L4.36992 280.517Z" fill="#14D6A1"/>
<path d="M33.7835 294.086C32.8119 294.086 31.9426 293.89 31.1756 293.498C30.4142 293.1 29.8063 292.555 29.3517 291.862C28.9028 291.168 28.6642 290.376 28.6358 289.484H30.1784C30.2295 290.41 30.5932 291.171 31.2693 291.768C31.9455 292.359 32.7835 292.654 33.7835 292.654C34.5619 292.654 35.2551 292.47 35.8631 292.1C36.471 291.725 36.9455 291.214 37.2864 290.566C37.633 289.913 37.8063 289.177 37.8063 288.359C37.8006 287.507 37.6159 286.757 37.2523 286.109C36.8886 285.455 36.3943 284.944 35.7693 284.575C35.15 284.205 34.454 284.021 33.6813 284.021C33.096 284.015 32.5222 284.112 31.9597 284.31C31.3972 284.509 30.9284 284.765 30.5534 285.078L28.9597 284.873L30.008 276.393H38.633V277.825H31.346L30.6472 283.663H30.7324C31.1188 283.339 31.5875 283.075 32.1386 282.87C32.6955 282.666 33.2835 282.563 33.9028 282.563C34.9313 282.563 35.8545 282.81 36.6727 283.305C37.4966 283.799 38.1472 284.481 38.6244 285.35C39.1074 286.214 39.3489 287.208 39.3489 288.333C39.3489 289.435 39.1074 290.421 38.6244 291.291C38.1472 292.154 37.4881 292.836 36.6472 293.336C35.8119 293.836 34.8574 294.086 33.7835 294.086ZM48.3957 294.086C47.1685 294.086 46.1202 293.734 45.2509 293.029C44.3872 292.319 43.7224 291.293 43.2565 289.953C42.7963 288.612 42.5662 287.001 42.5662 285.12C42.5662 283.245 42.7963 281.64 43.2565 280.305C43.7224 278.964 44.3901 277.938 45.2594 277.228C46.1344 276.512 47.1798 276.154 48.3957 276.154C49.6116 276.154 50.6543 276.512 51.5236 277.228C52.3986 277.938 53.0662 278.964 53.5264 280.305C53.9923 281.64 54.2253 283.245 54.2253 285.12C54.2253 287.001 53.9923 288.612 53.5264 289.953C53.0662 291.293 52.4014 292.319 51.5321 293.029C50.6685 293.734 49.623 294.086 48.3957 294.086ZM48.3957 292.654C49.7423 292.654 50.7935 291.998 51.5492 290.685C52.3048 289.367 52.6827 287.512 52.6827 285.12C52.6827 283.529 52.5094 282.171 52.1628 281.046C51.8219 279.916 51.3304 279.052 50.6884 278.455C50.052 277.859 49.2878 277.56 48.3957 277.56C47.0605 277.56 46.0122 278.225 45.2509 279.555C44.4895 280.879 44.1088 282.734 44.1088 285.12C44.1088 286.711 44.2793 288.069 44.6202 289.194C44.9668 290.319 45.4582 291.177 46.0946 291.768C46.7366 292.359 47.5037 292.654 48.3957 292.654ZM63.1145 294.086C61.8872 294.086 60.8389 293.734 59.9696 293.029C59.106 292.319 58.4412 291.293 57.9753 289.953C57.5151 288.612 57.2849 287.001 57.2849 285.12C57.2849 283.245 57.5151 281.64 57.9753 280.305C58.4412 278.964 59.1088 277.938 59.9781 277.228C60.8531 276.512 61.8986 276.154 63.1145 276.154C64.3304 276.154 65.373 276.512 66.2423 277.228C67.1173 277.938 67.7849 278.964 68.2452 280.305C68.7111 281.64 68.944 283.245 68.944 285.12C68.944 287.001 68.7111 288.612 68.2452 289.953C67.7849 291.293 67.1202 292.319 66.2509 293.029C65.3872 293.734 64.3418 294.086 63.1145 294.086ZM63.1145 292.654C64.4611 292.654 65.5122 291.998 66.2679 290.685C67.0236 289.367 67.4014 287.512 67.4014 285.12C67.4014 283.529 67.2281 282.171 66.8815 281.046C66.5406 279.916 66.0491 279.052 65.4071 278.455C64.7707 277.859 64.0065 277.56 63.1145 277.56C61.7793 277.56 60.731 278.225 59.9696 279.555C59.2082 280.879 58.8276 282.734 58.8276 285.12C58.8276 286.711 58.998 288.069 59.3389 289.194C59.6855 290.319 60.177 291.177 60.8134 291.768C61.4554 292.359 62.2224 292.654 63.1145 292.654ZM81.2423 290.609V289.816C81.2423 289.163 81.373 288.575 81.6344 288.052C81.8957 287.524 82.2679 287.106 82.7509 286.799C83.2338 286.492 83.8077 286.339 84.4724 286.339C85.1429 286.339 85.7168 286.492 86.194 286.799C86.6713 287.106 87.0378 287.524 87.2935 288.052C87.5491 288.575 87.677 289.163 87.677 289.816V290.609C87.677 291.262 87.5463 291.85 87.2849 292.373C87.0293 292.896 86.6628 293.313 86.1855 293.626C85.7082 293.933 85.1372 294.086 84.4724 294.086C83.7963 294.086 83.2168 293.933 82.7338 293.626C82.2565 293.313 81.8872 292.896 81.6259 292.373C81.3702 291.85 81.2423 291.262 81.2423 290.609ZM82.5804 289.816V290.609C82.5804 291.251 82.7367 291.799 83.0492 292.254C83.3673 292.703 83.8418 292.927 84.4724 292.927C85.0861 292.927 85.5492 292.703 85.8617 292.254C86.1742 291.799 86.3304 291.251 86.3304 290.609V289.816C86.3304 289.174 86.177 288.629 85.8702 288.18C85.5634 287.725 85.0974 287.498 84.4724 287.498C83.8531 287.498 83.3815 287.725 83.0577 288.18C82.7395 288.629 82.5804 289.174 82.5804 289.816ZM72.4469 280.424V279.632C72.4469 278.978 72.5776 278.39 72.8389 277.867C73.1003 277.345 73.4724 276.93 73.9554 276.623C74.4384 276.31 75.0122 276.154 75.677 276.154C76.3474 276.154 76.9213 276.31 77.3986 276.623C77.8759 276.93 78.2423 277.345 78.498 277.867C78.7537 278.39 78.8815 278.978 78.8815 279.632V280.424C78.8815 281.078 78.7509 281.668 78.4895 282.197C78.2338 282.72 77.8673 283.134 77.3901 283.441C76.9128 283.748 76.3418 283.901 75.677 283.901C75.0009 283.901 74.4213 283.748 73.9384 283.441C73.4611 283.134 73.0918 282.72 72.8304 282.197C72.5747 281.668 72.4469 281.078 72.4469 280.424ZM73.7849 279.632V280.424C73.7849 281.066 73.9412 281.614 74.2537 282.069C74.5719 282.518 75.0463 282.742 75.677 282.742C76.2906 282.742 76.7537 282.518 77.0662 282.069C77.3787 281.614 77.5349 281.066 77.5349 280.424V279.632C77.5349 278.989 77.3815 278.444 77.0747 277.995C76.7679 277.541 76.302 277.313 75.677 277.313C75.0577 277.313 74.5861 277.541 74.2622 277.995C73.944 278.444 73.7849 278.989 73.7849 279.632ZM73.231 293.847L85.2224 276.393H86.731L74.7395 293.847H73.231Z" fill="#14D6A1"/>
</svg>
