<svg width="1584" height="431" viewBox="0 0 1584 431" fill="none" xmlns="http://www.w3.org/2000/svg">
<path d="M11.5912 423.363L3.41013 424.863V427.863L1580.83 425.918V29.8309V27.8307L1576.23 21.8302L1569.58 15.3297L1561.4 13.3295L1554.75 13.8296L1551.68 11.3294L1541.97 4.82886L1536.85 42.8319L1531.23 86.8355L1525.09 85.3354L1518.96 77.3347L1507.2 56.8331L1498.5 54.3329L1487.26 36.8314L1479.59 28.8308L1473.96 34.8313L1467.83 69.3341L1461.18 88.3356L1453.51 106.837L1446.35 97.8364L1442.77 200.845L1435.61 225.347L1429.48 241.848L1411.58 233.347L1397.26 226.347L1384.99 220.346L1379.37 218.346L1372.21 208.345L1361.47 191.344L1353.8 186.344H1346.64L1341.02 202.345L1334.37 222.346L1328.75 215.846H1321.08L1316.48 208.345L1309.83 202.345L1303.69 195.344L1296.53 176.343L1289.38 176.843L1283.24 170.342L1275.57 176.343L1270.46 172.842L1263.81 162.342V163.842L1258.7 200.845L1251.03 196.844L1246.42 194.344L1238.75 188.344L1233.13 365.358L1227.51 362.358L1220.35 359.858L1214.21 356.357H1207.56L1200.92 354.857L1195.8 360.358L1190.18 360.858L1182 361.358L1179.95 358.357L1171.77 355.357L1157.46 348.857L1144.67 368.358L1128.31 360.358H1121.15L1101.72 357.857L1085.36 349.857L1075.13 347.857L1071.04 343.356L1056.73 342.356L1050.59 340.356L1027.58 334.856L1018.89 326.855L1005.59 325.355L999.969 331.355L992.811 341.356L986.164 339.856L979.005 332.855L975.426 328.855L957.53 325.355L938.1 319.854L931.453 320.354L923.783 321.855L916.113 327.855L909.977 325.355L890.547 318.354L885.434 330.855L873.674 327.855L861.913 327.355L855.266 322.855L846.574 318.354L840.949 315.854L834.814 311.854L827.655 309.854L821.519 309.354L814.872 318.354L808.225 311.854L805.157 338.856L801.578 340.856L795.953 338.856H790.329L783.682 333.855L778.057 346.857L771.41 366.858L765.786 364.858H759.138L752.491 363.358L746.355 362.358L739.197 362.858L733.061 368.858L726.414 367.358H719.767L713.631 364.358L706.473 363.358L700.848 362.858L695.735 362.358L690.622 361.858L682.952 360.358L676.816 366.858L671.192 365.858L657.386 365.358C656.193 365.025 653.296 364.358 651.25 364.358C649.205 364.358 646.648 364.691 645.626 364.858L638.467 362.858H631.82L625.684 360.358L619.037 361.358L613.924 360.358L608.3 357.857L601.141 357.357L594.494 352.857L588.358 355.357L581.711 352.357L575.064 350.357L569.951 347.857L562.281 351.857L556.145 357.357L548.475 361.858L542.34 359.858L536.715 356.357L530.068 355.357L524.443 354.357H518.308L512.172 352.357L506.036 351.857L499.9 349.857H492.742L486.606 348.357L480.981 346.357L473.823 344.356L466.664 345.856L461.04 343.856H454.393L448.257 341.856H441.61L435.474 344.856L428.316 355.357L422.18 350.857L420.646 349.857L417.578 347.357L410.931 345.356L404.795 344.356L398.148 342.356L392.012 341.856L385.876 340.356L378.206 336.856L372.071 335.856L365.935 343.356L360.31 359.358H359.288L352.64 357.857L346.505 356.857L339.858 357.857L333.722 356.357L327.075 352.857L322.473 354.857L316.337 351.857L309.69 353.357L303.554 350.857L296.907 349.857L290.771 349.357L284.124 347.357L276.965 352.357L272.363 351.357H269.807H264.694L258.047 350.357L251.399 349.357L244.752 347.857L238.105 348.857L234.015 355.357L228.39 359.858L221.232 361.358L214.073 360.358L208.449 364.358L201.802 367.358L195.666 364.858L189.019 360.358L181.86 359.358L175.724 365.858L169.077 362.358L162.941 361.358L156.806 373.859L156.294 373.359L149.647 370.858L143.511 378.359L138.909 389.86L132.774 397.361H125.615L119.479 395.861L113.344 401.361L106.185 400.361L100.049 402.361L93.9135 417.862L87.2663 416.362L80.6192 415.362L74.4834 424.863L67.8362 425.863L61.1891 424.863H54.542L48.4061 424.363H44.3156H37.6684L31.0213 423.363H24.3742H18.2384H11.5912Z" fill="url(#paint0_linear_121_4638)" stroke="#14D6A1" stroke-width="5"/>
<defs>
<linearGradient id="paint0_linear_121_4638" x1="792.118" y1="4.82886" x2="792.363" y2="499.869" gradientUnits="userSpaceOnUse">
<stop stop-color="#14D6A1"/>
<stop offset="0.599464" stop-color="#14D6A1" stop-opacity="0.602907"/>
<stop offset="1" stop-color="#14D6A1" stop-opacity="0"/>
</linearGradient>
</defs>
</svg>
