<svg width="76" height="76" viewBox="0 0 76 76" fill="none" xmlns="http://www.w3.org/2000/svg">
<rect width="76" height="76" rx="17.2569" fill="white"/>
<rect x="6.62386" y="6.62378" width="62.7523" height="62.7523" rx="13.7271" fill="#0B66C2"/>
<path d="M18.754 56.4364V28.6257H26.4672V56.4364H18.754ZM22.6287 25.0408C21.482 25.0408 20.4982 24.6605 19.6774 23.9001C18.8687 23.1276 18.4643 22.2042 18.4643 21.1299C18.4643 20.0677 18.8687 19.1563 19.6774 18.3959C20.4982 17.6234 21.482 17.2371 22.6287 17.2371C23.7754 17.2371 24.7531 17.6234 25.5619 18.3959C26.3827 19.1563 26.7931 20.0677 26.7931 21.1299C26.7931 22.2042 26.3827 23.1276 25.5619 23.9001C24.7531 24.6605 23.7754 25.0408 22.6287 25.0408ZM39.7981 40.3584V56.4364H32.0849V28.6257H39.4359V33.5324H39.7618C40.3775 31.915 41.4095 30.6355 42.858 29.694C44.3064 28.7404 46.0627 28.2636 48.1268 28.2636C50.0581 28.2636 51.7419 28.6861 53.1783 29.531C54.6147 30.376 55.7313 31.583 56.5279 33.1522C57.3246 34.7093 57.7229 36.5682 57.7229 38.7288V56.4364H50.0098V40.1049C50.0219 38.4029 49.5873 37.0751 48.7062 36.1216C47.825 35.1559 46.6119 34.6731 45.0669 34.6731C44.0288 34.6731 43.1114 34.8964 42.3148 35.343C41.5302 35.7896 40.9146 36.4414 40.468 37.2985C40.0334 38.1434 39.8101 39.1634 39.7981 40.3584Z" fill="white"/>
</svg>
