<svg width="76" height="76" viewBox="0 0 76 76" fill="none" xmlns="http://www.w3.org/2000/svg">
<rect width="76" height="76" rx="17.2569" fill="white"/>
<g filter="url(#filter0_f_2003_34)">
<path d="M43.7644 26.5576C43.0307 26.1384 41.3539 24.4615 41.3539 22.8894C41.3539 21.3173 41.2948 21.5269 41.4587 21.3173C42.7695 19.6404 44.1836 15.5531 43.2403 12.6185C42.2971 9.68398 40.3058 8.63592 38.0001 8.74072V67.6412L53.4064 67.5364C56.719 67.1578 60.114 66.0691 60.3236 62.0865C60.4143 60.3619 59.8736 59.4876 58.7515 58.6279C58.7515 58.6279 59.2821 58.474 59.5899 58.6279L60.2188 58.9423C61.7908 59.1519 61.162 58.4183 62.3149 58.5231C63.1533 58.5231 63.0218 58.2649 63.2581 57.9991C64.935 56.1126 64.1956 54.786 63.7821 54.8549C63.1533 54.9597 63.1533 55.2742 62.9437 55.379C62.7163 55.4927 62.8389 54.7363 62.8389 53.902C62.8389 53.2732 61.5812 53.8069 61.2668 53.9117C61.0014 54.0002 59.0659 54.2261 57.913 54.3309C57.7092 54.3494 57.6242 54.1073 57.4938 53.9117C56.4458 52.3396 55.9218 51.082 53.616 48.0426C52.9854 47.2113 52.3584 46.4705 51.6247 45.8417C51.0915 45.3846 51.4588 44.804 51.4151 43.536C51.3733 42.3214 51.3103 40.9159 51.2055 39.6582C51.1267 38.7121 51.3103 38.4005 51.3103 38.4005L51.5199 35.99C51.7296 33.0555 50.3671 30.5402 48.795 29.5969C47.2229 28.6537 44.498 26.9768 43.7644 26.5576Z" fill="#A55FDB"/>
<path d="M43.7644 26.5576C43.0307 26.1384 41.3539 24.4615 41.3539 22.8894C41.3539 21.3173 41.2948 21.5269 41.4587 21.3173C42.7695 19.6404 44.1836 15.5531 43.2403 12.6185C42.2971 9.68398 40.3058 8.63592 38.0001 8.74072V67.6412L53.4064 67.5364C56.719 67.1578 60.114 66.0691 60.3236 62.0865C60.4143 60.3619 59.8736 59.4876 58.7515 58.6279C58.7515 58.6279 59.2821 58.474 59.5899 58.6279L60.2188 58.9423C61.7908 59.1519 61.162 58.4183 62.3149 58.5231C63.1533 58.5231 63.0218 58.2649 63.2581 57.9991C64.935 56.1126 64.1956 54.786 63.7821 54.8549C63.1533 54.9597 63.1533 55.2742 62.9437 55.379C62.7163 55.4927 62.8389 54.7363 62.8389 53.902C62.8389 53.2732 61.5812 53.8069 61.2668 53.9117C61.0014 54.0002 59.0659 54.2261 57.913 54.3309C57.7092 54.3494 57.6242 54.1073 57.4938 53.9117C56.4458 52.3396 55.9218 51.082 53.616 48.0426C52.9854 47.2113 52.3584 46.4705 51.6247 45.8417C51.0915 45.3846 51.4588 44.804 51.4151 43.536C51.3733 42.3214 51.3103 40.9159 51.2055 39.6582C51.1267 38.7121 51.3103 38.4005 51.3103 38.4005L51.5199 35.99C51.7296 33.0555 50.3671 30.5402 48.795 29.5969C47.2229 28.6537 44.498 26.9768 43.7644 26.5576Z" stroke="#FFD411" stroke-width="0.690909"/>
</g>
<g filter="url(#filter1_f_2003_34)">
<path d="M32.2893 26.5576C33.0229 26.1384 34.6998 24.4615 34.6998 22.8894C34.6998 21.3173 34.7589 21.5269 34.595 21.3173C33.2841 19.6404 31.8701 15.5531 32.8133 12.6185C33.7566 9.68398 35.7478 8.63592 38.0536 8.74072V67.6412L22.6472 67.5364C19.3347 67.1578 15.9397 66.0691 15.7301 62.0865C15.6393 60.3619 16.1801 59.4876 17.3022 58.6279C17.3022 58.6279 16.7715 58.474 16.4637 58.6279L15.8349 58.9423C14.2628 59.1519 14.8916 58.4183 13.7388 58.5231C12.9004 58.5231 13.0318 58.2649 12.7955 57.9991C11.1187 56.1126 11.858 54.786 12.2715 54.8549C12.9003 54.9597 12.9003 55.2742 13.11 55.379C13.3374 55.4927 13.2148 54.7363 13.2148 53.902C13.2148 53.2732 14.4724 53.8069 14.7868 53.9117C15.0523 54.0002 16.9877 54.2261 18.1406 54.3309C18.3444 54.3494 18.4294 54.1073 18.5598 53.9117C19.6079 52.3396 20.1319 51.082 22.4376 48.0426C23.0683 47.2113 23.6953 46.4705 24.4289 45.8417C24.9622 45.3846 24.5948 44.804 24.6385 43.536C24.6803 42.3214 24.7433 40.9159 24.8481 39.6582C24.927 38.7121 24.7433 38.4005 24.7433 38.4005L24.5337 35.99C24.3241 33.0555 25.6866 30.5402 27.2586 29.5969C28.8307 28.6537 31.5556 26.9768 32.2893 26.5576Z" fill="#FFD310"/>
<path d="M32.2893 26.5576C33.0229 26.1384 34.6998 24.4615 34.6998 22.8894C34.6998 21.3173 34.7589 21.5269 34.595 21.3173C33.2841 19.6404 31.8701 15.5531 32.8133 12.6185C33.7566 9.68398 35.7478 8.63592 38.0536 8.74072V67.6412L22.6472 67.5364C19.3347 67.1578 15.9397 66.0691 15.7301 62.0865C15.6393 60.3619 16.1801 59.4876 17.3022 58.6279C17.3022 58.6279 16.7715 58.474 16.4637 58.6279L15.8349 58.9423C14.2628 59.1519 14.8916 58.4183 13.7388 58.5231C12.9004 58.5231 13.0318 58.2649 12.7955 57.9991C11.1187 56.1126 11.858 54.786 12.2715 54.8549C12.9003 54.9597 12.9003 55.2742 13.11 55.379C13.3374 55.4927 13.2148 54.7363 13.2148 53.902C13.2148 53.2732 14.4724 53.8069 14.7868 53.9117C15.0523 54.0002 16.9877 54.2261 18.1406 54.3309C18.3444 54.3494 18.4294 54.1073 18.5598 53.9117C19.6079 52.3396 20.1319 51.082 22.4376 48.0426C23.0683 47.2113 23.6953 46.4705 24.4289 45.8417C24.9622 45.3846 24.5948 44.804 24.6385 43.536C24.6803 42.3214 24.7433 40.9159 24.8481 39.6582C24.927 38.7121 24.7433 38.4005 24.7433 38.4005L24.5337 35.99C24.3241 33.0555 25.6866 30.5402 27.2586 29.5969C28.8307 28.6537 31.5556 26.9768 32.2893 26.5576Z" stroke="#A55FDB" stroke-width="0.690909"/>
</g>
<mask id="path-4-inside-1_2003_34" fill="white">
<path d="M35.1655 48.1663V47.7053C35.1745 46.1235 35.3146 44.8626 35.5858 43.9226C35.866 42.9826 36.2727 42.2233 36.806 41.6448C37.3393 41.0664 37.9811 40.5421 38.7313 40.0721C39.2917 39.7105 39.7933 39.3354 40.2362 38.9468C40.6791 38.5581 41.0316 38.1288 41.2938 37.6588C41.5559 37.1797 41.6869 36.6464 41.6869 36.0589C41.6869 35.4352 41.5378 34.8884 41.2395 34.4184C40.9412 33.9484 40.539 33.5868 40.0329 33.3337C39.5357 33.0806 38.9844 32.9541 38.3788 32.9541C37.7912 32.9541 37.2354 33.0852 36.7111 33.3473C36.1869 33.6004 35.7575 33.98 35.4231 34.4862C35.0887 34.9833 34.9079 35.6024 34.8808 36.3436H29.3491C29.3943 34.5359 29.8281 33.0445 30.6506 31.8694C31.4732 30.6854 32.5623 29.8041 33.9181 29.2256C35.274 28.6381 36.7699 28.3443 38.4059 28.3443C40.2046 28.3443 41.7954 28.6426 43.1783 29.2392C44.5613 29.8267 45.6459 30.6808 46.4323 31.8017C47.2187 32.9225 47.6118 34.2737 47.6118 35.8555C47.6118 36.9131 47.4356 37.8531 47.0831 38.6756C46.7396 39.4891 46.256 40.2122 45.6324 40.8449C45.0087 41.4686 44.272 42.0335 43.4224 42.5397C42.7083 42.9645 42.1208 43.4074 41.6598 43.8684C41.2079 44.3293 40.8689 44.8626 40.643 45.4682C40.426 46.0738 40.3131 46.8195 40.304 47.7053V48.1663H35.1655ZM37.85 56.8435C36.9461 56.8435 36.1733 56.5271 35.5316 55.8944C34.8988 55.2527 34.587 54.4844 34.5961 53.5895C34.587 52.7037 34.8988 51.9445 35.5316 51.3118C36.1733 50.6791 36.9461 50.3627 37.85 50.3627C38.7087 50.3627 39.4634 50.6791 40.1142 51.3118C40.765 51.9445 41.0949 52.7037 41.1039 53.5895C41.0949 54.1861 40.9367 54.7329 40.6294 55.2301C40.3311 55.7182 39.9379 56.1113 39.4499 56.4096C38.9618 56.6989 38.4285 56.8435 37.85 56.8435Z"/>
</mask>
<path d="M35.1655 48.1663V47.7053C35.1745 46.1235 35.3146 44.8626 35.5858 43.9226C35.866 42.9826 36.2727 42.2233 36.806 41.6448C37.3393 41.0664 37.9811 40.5421 38.7313 40.0721C39.2917 39.7105 39.7933 39.3354 40.2362 38.9468C40.6791 38.5581 41.0316 38.1288 41.2938 37.6588C41.5559 37.1797 41.6869 36.6464 41.6869 36.0589C41.6869 35.4352 41.5378 34.8884 41.2395 34.4184C40.9412 33.9484 40.539 33.5868 40.0329 33.3337C39.5357 33.0806 38.9844 32.9541 38.3788 32.9541C37.7912 32.9541 37.2354 33.0852 36.7111 33.3473C36.1869 33.6004 35.7575 33.98 35.4231 34.4862C35.0887 34.9833 34.9079 35.6024 34.8808 36.3436H29.3491C29.3943 34.5359 29.8281 33.0445 30.6506 31.8694C31.4732 30.6854 32.5623 29.8041 33.9181 29.2256C35.274 28.6381 36.7699 28.3443 38.4059 28.3443C40.2046 28.3443 41.7954 28.6426 43.1783 29.2392C44.5613 29.8267 45.6459 30.6808 46.4323 31.8017C47.2187 32.9225 47.6118 34.2737 47.6118 35.8555C47.6118 36.9131 47.4356 37.8531 47.0831 38.6756C46.7396 39.4891 46.256 40.2122 45.6324 40.8449C45.0087 41.4686 44.272 42.0335 43.4224 42.5397C42.7083 42.9645 42.1208 43.4074 41.6598 43.8684C41.2079 44.3293 40.8689 44.8626 40.643 45.4682C40.426 46.0738 40.3131 46.8195 40.304 47.7053V48.1663H35.1655ZM37.85 56.8435C36.9461 56.8435 36.1733 56.5271 35.5316 55.8944C34.8988 55.2527 34.587 54.4844 34.5961 53.5895C34.587 52.7037 34.8988 51.9445 35.5316 51.3118C36.1733 50.6791 36.9461 50.3627 37.85 50.3627C38.7087 50.3627 39.4634 50.6791 40.1142 51.3118C40.765 51.9445 41.0949 52.7037 41.1039 53.5895C41.0949 54.1861 40.9367 54.7329 40.6294 55.2301C40.3311 55.7182 39.9379 56.1113 39.4499 56.4096C38.9618 56.6989 38.4285 56.8435 37.85 56.8435Z" fill="#14D6A1"/>
<path d="M35.1655 48.1663H34.8891V48.4427H35.1655V48.1663ZM35.1655 47.7053L34.8891 47.7037V47.7053H35.1655ZM35.5858 43.9226L35.3209 43.8437L35.3203 43.846L35.5858 43.9226ZM38.7313 40.0721L38.878 40.3063L38.8811 40.3043L38.7313 40.0721ZM40.2362 38.9468L40.0539 38.7391L40.0539 38.7391L40.2362 38.9468ZM41.2938 37.6588L41.5351 37.7934L41.5362 37.7914L41.2938 37.6588ZM41.2395 34.4184L41.0062 34.5664L41.0062 34.5664L41.2395 34.4184ZM40.0329 33.3337L39.9075 33.58L39.9093 33.5809L40.0329 33.3337ZM36.7111 33.3473L36.8313 33.5962L36.8347 33.5945L36.7111 33.3473ZM35.4231 34.4862L35.6524 34.6404L35.6537 34.6385L35.4231 34.4862ZM34.8808 36.3436V36.62H35.1472L35.157 36.3537L34.8808 36.3436ZM29.3491 36.3436L29.0728 36.3367L29.0657 36.62H29.3491V36.3436ZM30.6506 31.8694L30.877 32.0279L30.8776 32.0271L30.6506 31.8694ZM33.9181 29.2256L34.0266 29.4798L34.028 29.4792L33.9181 29.2256ZM43.1783 29.2392L43.0689 29.4929L43.0703 29.4935L43.1783 29.2392ZM46.4323 31.8017L46.206 31.9604L46.206 31.9604L46.4323 31.8017ZM47.0831 38.6756L46.829 38.5667L46.8285 38.5681L47.0831 38.6756ZM45.6324 40.8449L45.8278 41.0403L45.8292 41.0389L45.6324 40.8449ZM43.4224 42.5397L43.5637 42.7772L43.5638 42.7771L43.4224 42.5397ZM41.6598 43.8684L41.4644 43.6729L41.4625 43.6749L41.6598 43.8684ZM40.643 45.4682L40.384 45.3716L40.3828 45.375L40.643 45.4682ZM40.304 47.7053L40.0277 47.7025V47.7053H40.304ZM40.304 48.1663V48.4427H40.5804V48.1663H40.304ZM35.5316 55.8944L35.3347 56.0885L35.3375 56.0912L35.5316 55.8944ZM34.5961 53.5895L34.8725 53.5923L34.8724 53.5867L34.5961 53.5895ZM35.5316 51.3118L35.3375 51.115L35.3361 51.1164L35.5316 51.3118ZM40.1142 51.3118L39.9216 51.5099L39.9216 51.5099L40.1142 51.3118ZM41.1039 53.5895L41.3804 53.5937L41.3803 53.5867L41.1039 53.5895ZM40.6294 55.2301L40.3943 55.0847L40.3936 55.086L40.6294 55.2301ZM39.4499 56.4096L39.5908 56.6474L39.594 56.6454L39.4499 56.4096ZM35.4419 48.1663V47.7053H34.8891V48.1663H35.4419ZM35.4419 47.7069C35.4508 46.1369 35.5902 44.9046 35.8513 43.9992L35.3203 43.846C35.0391 44.8207 34.8982 46.1101 34.8891 47.7037L35.4419 47.7069ZM35.8506 44.0015C36.1217 43.0921 36.5106 42.373 37.0092 41.8322L36.6028 41.4575C36.0348 42.0736 35.6103 42.873 35.3209 43.8437L35.8506 44.0015ZM37.0092 41.8322C37.5239 41.2738 38.146 40.7649 38.878 40.3063L38.5845 39.8379C37.8161 40.3194 37.1547 40.8589 36.6028 41.4575L37.0092 41.8322ZM38.8811 40.3043C39.4514 39.9364 39.9642 39.5532 40.4185 39.1545L40.0539 38.7391C39.6225 39.1177 39.1319 39.4847 38.5815 39.8399L38.8811 40.3043ZM40.4185 39.1545C40.8829 38.747 41.2562 38.2934 41.5351 37.7934L41.0524 37.5241C40.807 37.9641 40.4754 38.3692 40.0539 38.7391L40.4185 39.1545ZM41.5362 37.7914C41.8223 37.2686 41.9633 36.6892 41.9633 36.0589H41.4106C41.4106 36.6037 41.2895 37.0908 41.0513 37.5261L41.5362 37.7914ZM41.9633 36.0589C41.9633 35.3893 41.8025 34.7898 41.4729 34.2703L41.0062 34.5664C41.2731 34.987 41.4106 35.4812 41.4106 36.0589H41.9633ZM41.4729 34.2703C41.1472 33.7571 40.7067 33.3617 40.1564 33.0865L39.9093 33.5809C40.3713 33.8119 40.7353 34.1396 41.0062 34.5664L41.4729 34.2703ZM40.1582 33.0874C39.619 32.8129 39.0241 32.6777 38.3788 32.6777V33.2305C38.9446 33.2305 39.4524 33.3483 39.9075 33.58L40.1582 33.0874ZM38.3788 32.6777C37.7484 32.6777 37.1502 32.8187 36.5875 33.1001L36.8347 33.5945C37.3205 33.3516 37.834 33.2305 38.3788 33.2305V32.6777ZM36.591 33.0984C36.02 33.3741 35.5532 33.7879 35.1925 34.3338L35.6537 34.6385C35.9619 34.172 36.3538 33.8267 36.8313 33.5962L36.591 33.0984ZM35.1938 34.3319C34.8245 34.8809 34.6331 35.5531 34.6046 36.3335L35.157 36.3537C35.1826 35.6518 35.3529 35.0857 35.6524 34.6404L35.1938 34.3319ZM34.8808 36.0673H29.3491V36.62H34.8808V36.0673ZM29.6253 36.3505C29.6695 34.583 30.0929 33.1481 30.877 32.0279L30.4242 31.711C29.5633 32.9408 29.119 34.4888 29.0728 36.3367L29.6253 36.3505ZM30.8776 32.0271C31.6698 30.8867 32.7175 30.0384 34.0266 29.4798L33.8097 28.9714C32.4072 29.5698 31.2765 30.484 30.4237 31.7118L30.8776 32.0271ZM34.028 29.4792C35.3456 28.9082 36.8036 28.6207 38.4059 28.6207V28.068C36.7361 28.068 35.2023 28.3679 33.8083 28.972L34.028 29.4792ZM38.4059 28.6207C40.1741 28.6207 41.7265 28.9139 43.0689 29.4929L43.2878 28.9854C41.8643 28.3713 40.2351 28.068 38.4059 28.068V28.6207ZM43.0703 29.4935C44.4104 30.0629 45.4522 30.8859 46.206 31.9604L46.6585 31.6429C45.8396 30.4757 44.7121 29.5905 43.2864 28.9848L43.0703 29.4935ZM46.206 31.9604C46.9549 33.0277 47.3355 34.3214 47.3355 35.8555H47.8882C47.8882 34.226 47.4824 32.8172 46.6585 31.6429L46.206 31.9604ZM47.3355 35.8555C47.3355 36.8823 47.1644 37.7843 46.8291 38.5667L47.3371 38.7845C47.7068 37.9219 47.8882 36.9438 47.8882 35.8555H47.3355ZM46.8285 38.5681C46.4987 39.3492 46.0348 40.043 45.4355 40.6509L45.8292 41.0389C46.4773 40.3814 46.9805 39.629 47.3377 38.7831L46.8285 38.5681ZM45.4369 40.6495C44.8313 41.2552 44.1133 41.8064 43.2809 42.3022L43.5638 42.7771C44.4308 42.2606 45.1861 41.682 45.8278 41.0403L45.4369 40.6495ZM43.2811 42.3022C42.5524 42.7357 41.9453 43.192 41.4644 43.6729L41.8552 44.0638C42.2963 43.6228 42.8642 43.1933 43.5637 42.7772L43.2811 42.3022ZM41.4625 43.6749C40.9834 44.1635 40.6235 44.7298 40.384 45.3716L40.9019 45.5648C41.1144 44.9954 41.4323 44.4952 41.8572 44.0618L41.4625 43.6749ZM40.3828 45.375C40.1524 46.0183 40.0369 46.7967 40.0277 47.7025L40.5804 47.7081C40.5892 46.8424 40.6997 46.1294 40.9031 45.5614L40.3828 45.375ZM40.0277 47.7053V48.1663H40.5804V47.7053H40.0277ZM40.304 47.8899H35.1655V48.4427H40.304V47.8899ZM37.85 56.5671C37.0185 56.5671 36.3155 56.2792 35.7256 55.6976L35.3375 56.0912C36.0312 56.7751 36.8737 57.1198 37.85 57.1198V56.5671ZM35.7284 55.7004C35.1469 55.1106 34.8641 54.413 34.8724 53.5923L34.3197 53.5867C34.3099 54.5557 34.6508 55.3947 35.3348 56.0884L35.7284 55.7004ZM34.8724 53.5867C34.8641 52.776 35.1462 52.088 35.727 51.5072L35.3361 51.1164C34.6515 51.801 34.3099 52.6314 34.3197 53.5924L34.8724 53.5867ZM35.7256 51.5086C36.3155 50.927 37.0185 50.6391 37.85 50.6391V50.0863C36.8737 50.0863 36.0312 50.4311 35.3375 51.115L35.7256 51.5086ZM37.85 50.6391C38.6323 50.6391 39.3191 50.9242 39.9216 51.5099L40.3068 51.1136C39.6077 50.4339 38.785 50.0863 37.85 50.0863V50.6391ZM39.9216 51.5099C40.521 52.0927 40.8193 52.7822 40.8276 53.5924L41.3803 53.5867C41.3705 52.6252 41.009 51.7963 40.3068 51.1136L39.9216 51.5099ZM40.8276 53.5853C40.8193 54.1331 40.6748 54.631 40.3943 55.0847L40.8645 55.3754C41.1986 54.8349 41.3705 54.2391 41.3803 53.5937L40.8276 53.5853ZM40.3936 55.086C40.1182 55.5366 39.7564 55.8984 39.3057 56.1738L39.594 56.6454C40.1195 56.3243 40.5441 55.8997 40.8652 55.3742L40.3936 55.086ZM39.309 56.1719C38.8644 56.4353 38.3799 56.5671 37.85 56.5671V57.1198C38.477 57.1198 39.0591 56.9624 39.5907 56.6474L39.309 56.1719Z" fill="black" mask="url(#path-4-inside-1_2003_34)"/>
<defs>
<filter id="filter0_f_2003_34" x="37.3463" y="8.0799" width="27.6135" height="60.2174" filterUnits="userSpaceOnUse" color-interpolation-filters="sRGB">
<feFlood flood-opacity="0" result="BackgroundImageFix"/>
<feBlend mode="normal" in="SourceGraphic" in2="BackgroundImageFix" result="shape"/>
<feGaussianBlur stdDeviation="0.154143" result="effect1_foregroundBlur_2003_34"/>
</filter>
<filter id="filter1_f_2003_34" x="11.0938" y="8.0799" width="27.6135" height="60.2174" filterUnits="userSpaceOnUse" color-interpolation-filters="sRGB">
<feFlood flood-opacity="0" result="BackgroundImageFix"/>
<feBlend mode="normal" in="SourceGraphic" in2="BackgroundImageFix" result="shape"/>
<feGaussianBlur stdDeviation="0.154143" result="effect1_foregroundBlur_2003_34"/>
</filter>
</defs>
</svg>
