<svg width="1464" height="454" viewBox="0 0 1464 454" fill="none" xmlns="http://www.w3.org/2000/svg">
<mask id="path-1-inside-1_198_2426" fill="white">
<path d="M1309.91 73.8257C1309.91 68.3028 1314.39 63.8257 1319.91 63.8257H1394.91C1400.43 63.8257 1404.91 68.3028 1404.91 73.8257V99.8257C1404.91 105.349 1400.43 109.826 1394.91 109.826H1319.91C1314.39 109.826 1309.91 105.349 1309.91 99.8257V73.8257Z"/>
</mask>
<path d="M1309.91 63.8257H1404.91H1309.91ZM1404.91 99.8257C1404.91 105.901 1399.99 110.826 1393.91 110.826H1320.91C1314.84 110.826 1309.91 105.901 1309.91 99.8257C1309.91 104.796 1314.39 108.826 1319.91 108.826H1394.91C1400.43 108.826 1404.91 104.796 1404.91 99.8257ZM1309.91 109.826V63.8257V109.826ZM1404.91 63.8257V109.826V63.8257Z" fill="#FFD310" mask="url(#path-1-inside-1_198_2426)"/>
<path d="M1327.66 78.3711V95.8257H1326.07V80.0416H1325.97L1321.88 82.7603V81.1069L1326 78.3711H1327.66ZM1332.55 92.0757V90.7802L1340.33 78.3711H1341.28V80.5444H1340.57L1334.33 90.5331V90.6439H1344.53V92.0757H1332.55ZM1340.69 95.8257V91.6666V91.07V78.3711H1342.21V95.8257H1340.69ZM1353.48 96.0643C1352.76 96.0586 1352.06 95.9138 1351.37 95.6297C1350.68 95.3399 1350.06 94.8768 1349.51 94.2405C1348.96 93.5984 1348.52 92.7518 1348.2 91.7007C1347.88 90.6495 1347.71 89.3569 1347.71 87.8228C1347.71 86.4024 1347.84 85.1013 1348.09 83.9194C1348.34 82.7376 1348.71 81.7149 1349.21 80.8513C1349.71 79.9876 1350.34 79.32 1351.09 78.8484C1351.84 78.3711 1352.72 78.1325 1353.72 78.1325C1354.67 78.1325 1355.5 78.3285 1356.22 78.7206C1356.94 79.1069 1357.53 79.6467 1357.98 80.3399C1358.42 81.0331 1358.71 81.8314 1358.82 82.7348H1357.25C1357.09 81.8143 1356.71 81.0558 1356.12 80.4592C1355.52 79.8626 1354.72 79.5643 1353.72 79.5643C1352.29 79.5643 1351.18 80.2291 1350.4 81.5586C1349.61 82.8825 1349.22 84.7632 1349.21 87.2007H1349.32C1349.6 86.6836 1349.96 86.2376 1350.4 85.8626C1350.84 85.4819 1351.34 85.1865 1351.91 84.9763C1352.47 84.7603 1353.06 84.6524 1353.68 84.6524C1354.65 84.6524 1355.54 84.8995 1356.35 85.3939C1357.15 85.8825 1357.8 86.5558 1358.28 87.4138C1358.77 88.266 1359.01 89.2405 1359.01 90.337C1359.01 91.3768 1358.78 92.3342 1358.32 93.2092C1357.86 94.0842 1357.22 94.7802 1356.39 95.2973C1355.57 95.8143 1354.6 96.07 1353.48 96.0643ZM1353.48 94.6325C1354.25 94.6325 1354.92 94.4393 1355.52 94.053C1356.12 93.6666 1356.6 93.1495 1356.94 92.5018C1357.29 91.8484 1357.46 91.1268 1357.46 90.337C1357.46 89.5473 1357.29 88.8314 1356.94 88.1893C1356.6 87.5473 1356.12 87.0359 1355.52 86.6552C1354.92 86.2745 1354.25 86.0842 1353.48 86.0842C1352.9 86.0842 1352.36 86.2035 1351.86 86.4422C1351.36 86.6751 1350.93 86.9961 1350.56 87.4052C1350.2 87.8086 1349.92 88.2717 1349.73 88.7944C1349.54 89.3172 1349.47 89.8655 1349.51 90.4393C1349.57 91.2405 1349.78 91.9592 1350.13 92.5956C1350.49 93.2263 1350.96 93.7234 1351.53 94.087C1352.11 94.4507 1352.76 94.6325 1353.48 94.6325ZM1367.86 78.1325C1368.59 78.1382 1369.29 78.2859 1369.98 78.5757C1370.66 78.8598 1371.28 79.32 1371.83 79.9564C1372.38 80.587 1372.82 81.428 1373.15 82.4791C1373.47 83.5245 1373.63 84.8115 1373.63 86.3399C1373.63 87.766 1373.51 89.0728 1373.26 90.2603C1373.01 91.4478 1372.63 92.4763 1372.13 93.3456C1371.64 94.2092 1371.01 94.8797 1370.26 95.3569C1369.51 95.8285 1368.63 96.0643 1367.62 96.0643C1366.69 96.0643 1365.85 95.8683 1365.13 95.4763C1364.4 95.0842 1363.82 94.5416 1363.37 93.8484C1362.92 93.1495 1362.64 92.3427 1362.54 91.428H1364.1C1364.26 92.3598 1364.63 93.1268 1365.23 93.7291C1365.83 94.3314 1366.63 94.6325 1367.62 94.6325C1369.05 94.6325 1370.16 93.9677 1370.95 92.6382C1371.74 91.3086 1372.13 89.4166 1372.13 86.962H1372.02C1371.75 87.4734 1371.39 87.9194 1370.95 88.3001C1370.51 88.6808 1370.01 88.9791 1369.45 89.195C1368.88 89.4052 1368.29 89.5103 1367.67 89.5103C1366.69 89.5103 1365.8 89.266 1365 88.7774C1364.19 88.2831 1363.55 87.6098 1363.06 86.7575C1362.58 85.8995 1362.34 84.9223 1362.34 83.8257C1362.34 82.7916 1362.57 81.8427 1363.02 80.9791C1363.48 80.1098 1364.12 79.4166 1364.95 78.8995C1365.78 78.3768 1366.75 78.1211 1367.86 78.1325ZM1367.86 79.5643C1367.11 79.5643 1366.43 79.7575 1365.82 80.1439C1365.23 80.5245 1364.75 81.0388 1364.4 81.6865C1364.05 82.3285 1363.88 83.0416 1363.88 83.8257C1363.88 84.6155 1364.05 85.3342 1364.4 85.9819C1364.75 86.624 1365.23 87.1353 1365.82 87.516C1366.43 87.891 1367.11 88.0785 1367.86 88.0785C1368.44 88.0785 1368.98 87.962 1369.48 87.7291C1369.98 87.4905 1370.41 87.1666 1370.78 86.7575C1371.15 86.3484 1371.42 85.8853 1371.61 85.3683C1371.8 84.8456 1371.88 84.2973 1371.84 83.7234C1371.77 82.928 1371.56 82.2177 1371.2 81.5927C1370.85 80.962 1370.38 80.4677 1369.8 80.1098C1369.23 79.7461 1368.58 79.5643 1367.86 79.5643ZM1386.07 92.587V91.7944C1386.07 91.141 1386.2 90.553 1386.46 90.0302C1386.72 89.5018 1387.09 89.0842 1387.57 88.7774C1388.06 88.4706 1388.63 88.3172 1389.3 88.3172C1389.97 88.3172 1390.54 88.4706 1391.02 88.7774C1391.5 89.0842 1391.86 89.5018 1392.12 90.0302C1392.37 90.553 1392.5 91.141 1392.5 91.7944V92.587C1392.5 93.2405 1392.37 93.8285 1392.11 94.3513C1391.85 94.874 1391.49 95.2916 1391.01 95.6041C1390.53 95.9109 1389.96 96.0643 1389.3 96.0643C1388.62 96.0643 1388.04 95.9109 1387.56 95.6041C1387.08 95.2916 1386.71 94.874 1386.45 94.3513C1386.19 93.8285 1386.07 93.2405 1386.07 92.587ZM1387.4 91.7944V92.587C1387.4 93.2291 1387.56 93.7774 1387.87 94.2319C1388.19 94.6808 1388.67 94.9052 1389.3 94.9052C1389.91 94.9052 1390.37 94.6808 1390.69 94.2319C1391 93.7774 1391.15 93.2291 1391.15 92.587V91.7944C1391.15 91.1524 1391 90.6069 1390.69 90.1581C1390.39 89.7035 1389.92 89.4763 1389.3 89.4763C1388.68 89.4763 1388.21 89.7035 1387.88 90.1581C1387.56 90.6069 1387.4 91.1524 1387.4 91.7944ZM1377.27 82.4024V81.6098C1377.27 80.9564 1377.4 80.3683 1377.66 79.8456C1377.92 79.3228 1378.3 78.9081 1378.78 78.6013C1379.26 78.2888 1379.84 78.1325 1380.5 78.1325C1381.17 78.1325 1381.75 78.2888 1382.22 78.6013C1382.7 78.9081 1383.07 79.3228 1383.32 79.8456C1383.58 80.3683 1383.71 80.9564 1383.71 81.6098V82.4024C1383.71 83.0558 1383.57 83.6467 1383.31 84.1751C1383.06 84.6978 1382.69 85.1126 1382.21 85.4194C1381.74 85.7263 1381.17 85.8797 1380.5 85.8797C1379.82 85.8797 1379.25 85.7263 1378.76 85.4194C1378.29 85.1126 1377.92 84.6978 1377.65 84.1751C1377.4 83.6467 1377.27 83.0558 1377.27 82.4024ZM1378.61 81.6098V82.4024C1378.61 83.0444 1378.77 83.5927 1379.08 84.0473C1379.4 84.4961 1379.87 84.7206 1380.5 84.7206C1381.11 84.7206 1381.58 84.4961 1381.89 84.0473C1382.2 83.5927 1382.36 83.0444 1382.36 82.4024V81.6098C1382.36 80.9677 1382.21 80.4223 1381.9 79.9734C1381.59 79.5189 1381.13 79.2916 1380.5 79.2916C1379.88 79.2916 1379.41 79.5189 1379.09 79.9734C1378.77 80.4223 1378.61 80.9677 1378.61 81.6098ZM1378.05 95.8257L1390.05 78.3711H1391.55L1379.56 95.8257H1378.05Z" fill="#FFD310"/>
<line x1="1359.5" y1="109.418" x2="1359.5" y2="120.418" stroke="#FFD310"/>
<mask id="path-5-inside-2_198_2426" fill="white">
<path d="M1373.91 10.8257C1373.91 5.30284 1378.39 0.825684 1383.91 0.825684H1453.91C1459.43 0.825684 1463.91 5.30284 1463.91 10.8257V36.8257C1463.91 42.3485 1459.43 46.8257 1453.91 46.8257H1383.91C1378.39 46.8257 1373.91 42.3485 1373.91 36.8257V10.8257Z"/>
</mask>
<path d="M1373.91 0.825684H1463.91H1373.91ZM1463.91 36.8257C1463.91 42.9008 1458.99 47.8257 1452.91 47.8257H1384.91C1378.84 47.8257 1373.91 42.9008 1373.91 36.8257C1373.91 41.7962 1378.39 45.8257 1383.91 45.8257H1453.91C1459.43 45.8257 1463.91 41.7962 1463.91 36.8257ZM1373.91 46.8257V0.825684V46.8257ZM1463.91 0.825684V46.8257V0.825684Z" fill="#FFD310" mask="url(#path-5-inside-2_198_2426)"/>
<path d="M1391.49 15.3711V32.8257H1389.9V17.0416H1389.8L1385.71 19.7603V18.1069L1389.83 15.3711H1391.49ZM1401.9 33.0643C1400.93 33.0643 1400.06 32.8683 1399.29 32.4763C1398.53 32.0785 1397.92 31.5331 1397.47 30.8399C1397.02 30.1467 1396.78 29.3541 1396.75 28.462H1398.3C1398.35 29.3882 1398.71 30.1495 1399.39 30.7461C1400.06 31.337 1400.9 31.6325 1401.9 31.6325C1402.68 31.6325 1403.37 31.4478 1403.98 31.0785C1404.59 30.7035 1405.06 30.1922 1405.4 29.5444C1405.75 28.891 1405.92 28.1552 1405.92 27.337C1405.92 26.4848 1405.73 25.7348 1405.37 25.087C1405.01 24.4336 1404.51 23.9223 1403.89 23.553C1403.27 23.1836 1402.57 22.999 1401.8 22.999C1401.21 22.9933 1400.64 23.0899 1400.08 23.2888C1399.51 23.4876 1399.05 23.7433 1398.67 24.0558L1397.08 23.8513L1398.12 15.3711H1406.75V16.803H1399.46L1398.76 22.641H1398.85C1399.24 22.3172 1399.7 22.053 1400.26 21.8484C1400.81 21.6439 1401.4 21.5416 1402.02 21.5416C1403.05 21.5416 1403.97 21.7888 1404.79 22.2831C1405.61 22.7774 1406.26 23.4592 1406.74 24.3285C1407.22 25.1922 1407.47 26.1865 1407.47 27.3115C1407.47 28.4138 1407.22 29.3995 1406.74 30.2689C1406.26 31.1325 1405.61 31.8143 1404.76 32.3143C1403.93 32.8143 1402.97 33.0643 1401.9 33.0643ZM1416.59 33.0643C1415.87 33.0586 1415.16 32.9138 1414.48 32.6297C1413.79 32.3399 1413.17 31.8768 1412.62 31.2405C1412.07 30.5984 1411.63 29.7518 1411.31 28.7007C1410.98 27.6495 1410.82 26.3569 1410.82 24.8228C1410.82 23.4024 1410.94 22.1013 1411.19 20.9194C1411.44 19.7376 1411.82 18.7149 1412.32 17.8513C1412.82 16.9876 1413.44 16.32 1414.19 15.8484C1414.94 15.3711 1415.82 15.1325 1416.83 15.1325C1417.77 15.1325 1418.6 15.3285 1419.33 15.7206C1420.05 16.1069 1420.63 16.6467 1421.08 17.3399C1421.53 18.0331 1421.81 18.8314 1421.92 19.7348H1420.36C1420.2 18.8143 1419.82 18.0558 1419.22 17.4592C1418.63 16.8626 1417.83 16.5643 1416.83 16.5643C1415.4 16.5643 1414.29 17.2291 1413.5 18.5586C1412.72 19.8825 1412.33 21.7632 1412.32 24.2007H1412.43C1412.71 23.6836 1413.07 23.2376 1413.5 22.8626C1413.95 22.4819 1414.45 22.1865 1415.01 21.9763C1415.58 21.7603 1416.17 21.6524 1416.79 21.6524C1417.76 21.6524 1418.65 21.8995 1419.45 22.3939C1420.26 22.8825 1420.9 23.5558 1421.39 24.4138C1421.87 25.266 1422.11 26.2405 1422.11 27.337C1422.11 28.3768 1421.88 29.3342 1421.42 30.2092C1420.97 31.0842 1420.33 31.7802 1419.5 32.2973C1418.67 32.8143 1417.7 33.07 1416.59 33.0643ZM1416.59 31.6325C1417.35 31.6325 1418.03 31.4393 1418.63 31.053C1419.23 30.6666 1419.7 30.1495 1420.05 29.5018C1420.4 28.8484 1420.57 28.1268 1420.57 27.337C1420.57 26.5473 1420.4 25.8314 1420.05 25.1893C1419.7 24.5473 1419.23 24.0359 1418.63 23.6552C1418.03 23.2745 1417.35 23.0842 1416.59 23.0842C1416.01 23.0842 1415.47 23.2035 1414.97 23.4422C1414.47 23.6751 1414.04 23.9961 1413.67 24.4052C1413.3 24.8086 1413.02 25.2717 1412.83 25.7944C1412.64 26.3172 1412.57 26.8655 1412.62 27.4393C1412.68 28.2405 1412.89 28.9592 1413.24 29.5956C1413.6 30.2263 1414.06 30.7234 1414.64 31.087C1415.22 31.4507 1415.87 31.6325 1416.59 31.6325ZM1431.1 15.3711V32.8257H1429.51V17.0416H1429.41L1425.32 19.7603V18.1069L1429.44 15.3711H1431.1ZM1445.23 29.587V28.7944C1445.23 28.141 1445.36 27.553 1445.63 27.0302C1445.89 26.5018 1446.26 26.0842 1446.74 25.7774C1447.23 25.4706 1447.8 25.3172 1448.46 25.3172C1449.13 25.3172 1449.71 25.4706 1450.19 25.7774C1450.66 26.0842 1451.03 26.5018 1451.29 27.0302C1451.54 27.553 1451.67 28.141 1451.67 28.7944V29.587C1451.67 30.2405 1451.54 30.8285 1451.28 31.3513C1451.02 31.874 1450.65 32.2916 1450.18 32.6041C1449.7 32.9109 1449.13 33.0643 1448.46 33.0643C1447.79 33.0643 1447.21 32.9109 1446.73 32.6041C1446.25 32.2916 1445.88 31.874 1445.62 31.3513C1445.36 30.8285 1445.23 30.2405 1445.23 29.587ZM1446.57 28.7944V29.587C1446.57 30.2291 1446.73 30.7774 1447.04 31.2319C1447.36 31.6808 1447.83 31.9052 1448.46 31.9052C1449.08 31.9052 1449.54 31.6808 1449.85 31.2319C1450.17 30.7774 1450.32 30.2291 1450.32 29.587V28.7944C1450.32 28.1524 1450.17 27.6069 1449.86 27.1581C1449.56 26.7035 1449.09 26.4763 1448.46 26.4763C1447.85 26.4763 1447.37 26.7035 1447.05 27.1581C1446.73 27.6069 1446.57 28.1524 1446.57 28.7944ZM1436.44 19.4024V18.6098C1436.44 17.9564 1436.57 17.3683 1436.83 16.8456C1437.09 16.3228 1437.46 15.9081 1437.95 15.6013C1438.43 15.2888 1439 15.1325 1439.67 15.1325C1440.34 15.1325 1440.91 15.2888 1441.39 15.6013C1441.87 15.9081 1442.23 16.3228 1442.49 16.8456C1442.75 17.3683 1442.87 17.9564 1442.87 18.6098V19.4024C1442.87 20.0558 1442.74 20.6467 1442.48 21.1751C1442.23 21.6978 1441.86 22.1126 1441.38 22.4194C1440.9 22.7263 1440.33 22.8797 1439.67 22.8797C1438.99 22.8797 1438.41 22.7263 1437.93 22.4194C1437.45 22.1126 1437.08 21.6978 1436.82 21.1751C1436.57 20.6467 1436.44 20.0558 1436.44 19.4024ZM1437.78 18.6098V19.4024C1437.78 20.0444 1437.93 20.5927 1438.25 21.0473C1438.56 21.4961 1439.04 21.7206 1439.67 21.7206C1440.28 21.7206 1440.75 21.4961 1441.06 21.0473C1441.37 20.5927 1441.53 20.0444 1441.53 19.4024V18.6098C1441.53 17.9677 1441.37 17.4223 1441.07 16.9734C1440.76 16.5189 1440.29 16.2916 1439.67 16.2916C1439.05 16.2916 1438.58 16.5189 1438.25 16.9734C1437.94 17.4223 1437.78 17.9677 1437.78 18.6098ZM1437.22 32.8257L1449.21 15.3711H1450.72L1438.73 32.8257H1437.22Z" fill="#FFD310"/>
<line x1="1419.5" y1="46.4137" x2="1419.95" y2="95.831" stroke="#FFD310"/>
<mask id="path-9-inside-3_198_2426" fill="white">
<path d="M0.165161 379.847C0.165161 374.325 4.64231 369.847 10.1652 369.847H75.1652C80.688 369.847 85.1652 374.325 85.1652 379.847V405.847C85.1652 411.37 80.688 415.847 75.1652 415.847H10.1652C4.64231 415.847 0.165161 411.37 0.165161 405.847V379.847Z"/>
</mask>
<path d="M0.165161 369.847H85.1652H0.165161ZM85.1652 405.847C85.1652 411.923 80.2403 416.847 74.1652 416.847H11.1652C5.09003 416.847 0.165161 411.923 0.165161 405.847C0.165161 410.818 4.64231 414.847 10.1652 414.847H75.1652C80.688 414.847 85.1652 410.818 85.1652 405.847ZM0.165161 415.847V369.847V415.847ZM85.1652 369.847V415.847V369.847Z" fill="#FFD310" mask="url(#path-9-inside-3_198_2426)"/>
<path d="M12.5927 401.847V400.68L18.2944 394.271C19.0387 393.43 19.6382 392.711 20.0927 392.114C20.5473 391.518 20.8768 390.967 21.0814 390.461C21.2916 389.955 21.3967 389.43 21.3967 388.884C21.3967 388.22 21.2404 387.64 20.9279 387.146C20.6211 386.646 20.1978 386.257 19.6581 385.978C19.1183 385.7 18.5103 385.56 17.8342 385.56C17.1183 385.56 16.4904 385.714 15.9507 386.021C15.4166 386.328 15.0018 386.748 14.7064 387.282C14.4109 387.816 14.2632 388.43 14.2632 389.123H12.7376C12.7376 388.157 12.9592 387.302 13.4024 386.558C13.8512 385.808 14.462 385.22 15.2348 384.793C16.0132 384.367 16.8939 384.154 17.8768 384.154C18.8484 384.154 19.712 384.364 20.4677 384.785C21.2234 385.2 21.8172 385.765 22.249 386.481C22.6808 387.197 22.8967 387.998 22.8967 388.884C22.8967 389.526 22.7831 390.149 22.5558 390.751C22.3342 391.353 21.9507 392.024 21.4052 392.762C20.8598 393.501 20.1041 394.404 19.1382 395.472L14.8086 400.305V400.416H23.4421V401.847H12.5927ZM32.9088 402.086C31.8349 402.086 30.8747 401.893 30.0281 401.507C29.1815 401.114 28.511 400.572 28.0167 399.879C27.5224 399.185 27.261 398.387 27.2326 397.484H28.8434C28.8718 398.12 29.0679 398.677 29.4315 399.154C29.7951 399.626 30.2781 399.995 30.8804 400.262C31.4826 400.524 32.1531 400.654 32.8917 400.654C33.6985 400.654 34.4088 400.504 35.0224 400.203C35.6417 399.901 36.1247 399.489 36.4713 398.967C36.8235 398.438 36.9997 397.842 36.9997 397.177C36.9997 396.472 36.8207 395.85 36.4627 395.31C36.1048 394.771 35.5906 394.35 34.9201 394.049C34.2554 393.748 33.4599 393.597 32.5338 393.597H31.511V392.166H32.5338C33.2895 392.166 33.9571 392.029 34.5366 391.757C35.1218 391.478 35.5821 391.089 35.9173 390.589C36.2525 390.089 36.4201 389.501 36.4201 388.825C36.4201 388.183 36.2752 387.617 35.9855 387.129C35.6957 386.64 35.2866 386.257 34.7582 385.978C34.2355 385.7 33.6247 385.56 32.9258 385.56C32.2497 385.56 31.6304 385.691 31.0679 385.953C30.5054 386.214 30.0508 386.583 29.7042 387.06C29.3633 387.538 29.1815 388.103 29.1588 388.757H27.6162C27.6389 387.847 27.8889 387.049 28.3662 386.362C28.8491 385.668 29.4883 385.129 30.2838 384.742C31.0849 384.35 31.9713 384.154 32.9429 384.154C33.9713 384.154 34.8605 384.364 35.6105 384.785C36.3605 385.205 36.94 385.765 37.3491 386.464C37.7639 387.157 37.9713 387.921 37.9713 388.757C37.9713 389.751 37.7014 390.603 37.1616 391.313C36.6218 392.018 35.8946 392.507 34.9798 392.779V392.89C36.0934 393.112 36.9684 393.606 37.6048 394.373C38.2468 395.134 38.5679 396.069 38.5679 397.177C38.5679 398.109 38.3235 398.947 37.8349 399.691C37.3463 400.43 36.6758 401.015 35.8235 401.447C34.977 401.873 34.0054 402.086 32.9088 402.086ZM48.0025 402.086C46.9287 402.086 45.9684 401.893 45.1218 401.507C44.2752 401.114 43.6048 400.572 43.1105 399.879C42.6162 399.185 42.3548 398.387 42.3264 397.484H43.9372C43.9656 398.12 44.1616 398.677 44.5252 399.154C44.8889 399.626 45.3718 399.995 45.9741 400.262C46.5764 400.524 47.2468 400.654 47.9855 400.654C48.7923 400.654 49.5025 400.504 50.1162 400.203C50.7355 399.901 51.2184 399.489 51.565 398.967C51.9173 398.438 52.0934 397.842 52.0934 397.177C52.0934 396.472 51.9145 395.85 51.5565 395.31C51.1985 394.771 50.6843 394.35 50.0139 394.049C49.3491 393.748 48.5537 393.597 47.6275 393.597H46.6048V392.166H47.6275C48.3832 392.166 49.0508 392.029 49.6304 391.757C50.2156 391.478 50.6758 391.089 51.011 390.589C51.3463 390.089 51.5139 389.501 51.5139 388.825C51.5139 388.183 51.369 387.617 51.0792 387.129C50.7895 386.64 50.3804 386.257 49.852 385.978C49.3292 385.7 48.7184 385.56 48.0196 385.56C47.3434 385.56 46.7241 385.691 46.1616 385.953C45.5991 386.214 45.1446 386.583 44.798 387.06C44.4571 387.538 44.2752 388.103 44.2525 388.757H42.7099C42.7326 387.847 42.9826 387.049 43.4599 386.362C43.9429 385.668 44.5821 385.129 45.3775 384.742C46.1787 384.35 47.065 384.154 48.0366 384.154C49.065 384.154 49.9542 384.364 50.7042 384.785C51.4542 385.205 52.0338 385.765 52.4429 386.464C52.8576 387.157 53.065 387.921 53.065 388.757C53.065 389.751 52.7951 390.603 52.2554 391.313C51.7156 392.018 50.9883 392.507 50.0735 392.779V392.89C51.1872 393.112 52.0622 393.606 52.6985 394.373C53.3406 395.134 53.6616 396.069 53.6616 397.177C53.6616 398.109 53.4173 398.947 52.9287 399.691C52.44 400.43 51.7696 401.015 50.9173 401.447C50.0707 401.873 49.0991 402.086 48.0025 402.086ZM66.2582 398.609V397.816C66.2582 397.163 66.3889 396.575 66.6502 396.052C66.9116 395.524 67.2838 395.106 67.7667 394.799C68.2497 394.492 68.8235 394.339 69.4883 394.339C70.1588 394.339 70.7326 394.492 71.2099 394.799C71.6872 395.106 72.0537 395.524 72.3093 396.052C72.565 396.575 72.6929 397.163 72.6929 397.816V398.609C72.6929 399.262 72.5622 399.85 72.3008 400.373C72.0451 400.896 71.6787 401.313 71.2014 401.626C70.7241 401.933 70.1531 402.086 69.4883 402.086C68.8122 402.086 68.2326 401.933 67.7497 401.626C67.2724 401.313 66.9031 400.896 66.6417 400.373C66.386 399.85 66.2582 399.262 66.2582 398.609ZM67.5963 397.816V398.609C67.5963 399.251 67.7525 399.799 68.065 400.254C68.3832 400.703 68.8576 400.927 69.4883 400.927C70.102 400.927 70.565 400.703 70.8775 400.254C71.19 399.799 71.3463 399.251 71.3463 398.609V397.816C71.3463 397.174 71.1929 396.629 70.886 396.18C70.5792 395.725 70.1133 395.498 69.4883 395.498C68.869 395.498 68.3974 395.725 68.0735 396.18C67.7554 396.629 67.5963 397.174 67.5963 397.816ZM57.4627 388.424V387.632C57.4627 386.978 57.5934 386.39 57.8548 385.867C58.1162 385.345 58.4883 384.93 58.9713 384.623C59.4542 384.31 60.0281 384.154 60.6929 384.154C61.3633 384.154 61.9372 384.31 62.4145 384.623C62.8917 384.93 63.2582 385.345 63.5139 385.867C63.7696 386.39 63.8974 386.978 63.8974 387.632V388.424C63.8974 389.078 63.7667 389.668 63.5054 390.197C63.2497 390.72 62.8832 391.134 62.4059 391.441C61.9287 391.748 61.3576 391.901 60.6929 391.901C60.0167 391.901 59.4372 391.748 58.9542 391.441C58.477 391.134 58.1076 390.72 57.8463 390.197C57.5906 389.668 57.4627 389.078 57.4627 388.424ZM58.8008 387.632V388.424C58.8008 389.066 58.9571 389.614 59.2696 390.069C59.5877 390.518 60.0622 390.742 60.6929 390.742C61.3065 390.742 61.7696 390.518 62.0821 390.069C62.3946 389.614 62.5508 389.066 62.5508 388.424V387.632C62.5508 386.989 62.3974 386.444 62.0906 385.995C61.7838 385.541 61.3179 385.313 60.6929 385.313C60.0735 385.313 59.602 385.541 59.2781 385.995C58.9599 386.444 58.8008 386.989 58.8008 387.632ZM58.2468 401.847L70.2383 384.393H71.7468L59.7554 401.847H58.2468Z" fill="#FFD310"/>
<line x1="41.5" y1="416.418" x2="41.5" y2="453.418" stroke="#FFD310"/>
<mask id="path-13-inside-4_198_2426" fill="white">
<path d="M210.165 352.847C210.165 347.325 214.642 342.847 220.165 342.847H283.165C288.688 342.847 293.165 347.325 293.165 352.847V378.847C293.165 384.37 288.688 388.847 283.165 388.847H220.165C214.642 388.847 210.165 384.37 210.165 378.847V352.847Z"/>
</mask>
<path d="M210.165 342.847H293.165H210.165ZM293.165 378.847C293.165 384.923 288.24 389.847 282.165 389.847H221.165C215.09 389.847 210.165 384.923 210.165 378.847C210.165 383.818 214.642 387.847 220.165 387.847H283.165C288.688 387.847 293.165 383.818 293.165 378.847ZM210.165 388.847V342.847V388.847ZM293.165 342.847V388.847V342.847Z" fill="#FFD310" mask="url(#path-13-inside-4_198_2426)"/>
<path d="M228.045 375.086C226.972 375.086 226.011 374.893 225.165 374.507C224.318 374.114 223.648 373.572 223.153 372.879C222.659 372.185 222.398 371.387 222.369 370.484H223.98C224.009 371.12 224.205 371.677 224.568 372.154C224.932 372.626 225.415 372.995 226.017 373.262C226.619 373.524 227.29 373.654 228.028 373.654C228.835 373.654 229.545 373.504 230.159 373.203C230.778 372.901 231.261 372.489 231.608 371.967C231.96 371.438 232.136 370.842 232.136 370.177C232.136 369.472 231.957 368.85 231.599 368.31C231.242 367.771 230.727 367.35 230.057 367.049C229.392 366.748 228.597 366.597 227.67 366.597H226.648V365.166H227.67C228.426 365.166 229.094 365.029 229.673 364.757C230.259 364.478 230.719 364.089 231.054 363.589C231.389 363.089 231.557 362.501 231.557 361.825C231.557 361.183 231.412 360.617 231.122 360.129C230.832 359.64 230.423 359.257 229.895 358.978C229.372 358.7 228.761 358.56 228.063 358.56C227.386 358.56 226.767 358.691 226.205 358.953C225.642 359.214 225.188 359.583 224.841 360.06C224.5 360.538 224.318 361.103 224.295 361.757H222.753C222.776 360.847 223.026 360.049 223.503 359.362C223.986 358.668 224.625 358.129 225.42 357.742C226.222 357.35 227.108 357.154 228.08 357.154C229.108 357.154 229.997 357.364 230.747 357.785C231.497 358.205 232.077 358.765 232.486 359.464C232.901 360.157 233.108 360.921 233.108 361.757C233.108 362.751 232.838 363.603 232.298 364.313C231.759 365.018 231.031 365.507 230.117 365.779V365.89C231.23 366.112 232.105 366.606 232.742 367.373C233.384 368.134 233.705 369.069 233.705 370.177C233.705 371.109 233.46 371.947 232.972 372.691C232.483 373.43 231.813 374.015 230.96 374.447C230.114 374.873 229.142 375.086 228.045 375.086ZM237.472 374.847V373.68L243.173 367.271C243.918 366.43 244.517 365.711 244.972 365.114C245.426 364.518 245.756 363.967 245.96 363.461C246.17 362.955 246.276 362.43 246.276 361.884C246.276 361.22 246.119 360.64 245.807 360.146C245.5 359.646 245.077 359.257 244.537 358.978C243.997 358.7 243.389 358.56 242.713 358.56C241.997 358.56 241.369 358.714 240.83 359.021C240.295 359.328 239.881 359.748 239.585 360.282C239.29 360.816 239.142 361.43 239.142 362.123H237.617C237.617 361.157 237.838 360.302 238.281 359.558C238.73 358.808 239.341 358.22 240.114 357.793C240.892 357.367 241.773 357.154 242.756 357.154C243.727 357.154 244.591 357.364 245.347 357.785C246.102 358.2 246.696 358.765 247.128 359.481C247.56 360.197 247.776 360.998 247.776 361.884C247.776 362.526 247.662 363.149 247.435 363.751C247.213 364.353 246.83 365.024 246.284 365.762C245.739 366.501 244.983 367.404 244.017 368.472L239.688 373.305V373.416H248.321V374.847H237.472ZM252.623 374.847L260.575 358.935V358.825H251.413V357.393H262.245V358.893L254.302 374.847H252.623ZM274.473 371.609V370.816C274.473 370.163 274.604 369.575 274.865 369.052C275.126 368.524 275.499 368.106 275.982 367.799C276.465 367.492 277.038 367.339 277.703 367.339C278.374 367.339 278.947 367.492 279.425 367.799C279.902 368.106 280.268 368.524 280.524 369.052C280.78 369.575 280.908 370.163 280.908 370.816V371.609C280.908 372.262 280.777 372.85 280.516 373.373C280.26 373.896 279.893 374.313 279.416 374.626C278.939 374.933 278.368 375.086 277.703 375.086C277.027 375.086 276.447 374.933 275.965 374.626C275.487 374.313 275.118 373.896 274.857 373.373C274.601 372.85 274.473 372.262 274.473 371.609ZM275.811 370.816V371.609C275.811 372.251 275.967 372.799 276.28 373.254C276.598 373.703 277.072 373.927 277.703 373.927C278.317 373.927 278.78 373.703 279.092 373.254C279.405 372.799 279.561 372.251 279.561 371.609V370.816C279.561 370.174 279.408 369.629 279.101 369.18C278.794 368.725 278.328 368.498 277.703 368.498C277.084 368.498 276.612 368.725 276.288 369.18C275.97 369.629 275.811 370.174 275.811 370.816ZM265.678 361.424V360.632C265.678 359.978 265.808 359.39 266.07 358.867C266.331 358.345 266.703 357.93 267.186 357.623C267.669 357.31 268.243 357.154 268.908 357.154C269.578 357.154 270.152 357.31 270.629 357.623C271.107 357.93 271.473 358.345 271.729 358.867C271.984 359.39 272.112 359.978 272.112 360.632V361.424C272.112 362.078 271.982 362.668 271.72 363.197C271.465 363.72 271.098 364.134 270.621 364.441C270.143 364.748 269.572 364.901 268.908 364.901C268.232 364.901 267.652 364.748 267.169 364.441C266.692 364.134 266.322 363.72 266.061 363.197C265.805 362.668 265.678 362.078 265.678 361.424ZM267.016 360.632V361.424C267.016 362.066 267.172 362.614 267.484 363.069C267.803 363.518 268.277 363.742 268.908 363.742C269.521 363.742 269.984 363.518 270.297 363.069C270.609 362.614 270.766 362.066 270.766 361.424V360.632C270.766 359.989 270.612 359.444 270.305 358.995C269.999 358.541 269.533 358.313 268.908 358.313C268.288 358.313 267.817 358.541 267.493 358.995C267.175 359.444 267.016 359.989 267.016 360.632ZM266.462 374.847L278.453 357.393H279.962L267.97 374.847H266.462Z" fill="#FFD310"/>
<line x1="251.5" y1="389.418" x2="251.5" y2="426.418" stroke="#FFD310"/>
<mask id="path-17-inside-5_198_2426" fill="white">
<path d="M645.165 326.847C645.165 321.325 649.642 316.847 655.165 316.847H715.165C720.688 316.847 725.165 321.325 725.165 326.847V352.847C725.165 358.37 720.688 362.847 715.165 362.847H655.165C649.642 362.847 645.165 358.37 645.165 352.847V326.847Z"/>
</mask>
<path d="M645.165 316.847H725.165H645.165ZM725.165 352.847C725.165 358.923 720.24 363.847 714.165 363.847H656.165C650.09 363.847 645.165 358.923 645.165 352.847C645.165 357.818 649.642 361.847 655.165 361.847H715.165C720.688 361.847 725.165 357.818 725.165 352.847ZM645.165 362.847V316.847V362.847ZM725.165 316.847V362.847V316.847Z" fill="#FFD310" mask="url(#path-17-inside-5_198_2426)"/>
<path d="M657.042 345.097V343.802L664.824 331.393H665.778V333.566H665.071L658.824 343.555V343.666H669.025V345.097H657.042ZM665.19 348.847V344.688V344.092V331.393H666.707V348.847H665.19ZM677.635 331.393V348.847H676.042V333.063H675.939L671.848 335.782V334.129L675.973 331.393H677.635ZM688.434 349.086C687.712 349.08 687.007 348.935 686.32 348.651C685.632 348.362 685.013 347.899 684.462 347.262C683.911 346.62 683.473 345.774 683.15 344.722C682.826 343.671 682.664 342.379 682.664 340.845C682.664 339.424 682.789 338.123 683.039 336.941C683.289 335.759 683.664 334.737 684.164 333.873C684.664 333.009 685.289 332.342 686.039 331.87C686.789 331.393 687.667 331.154 688.672 331.154C689.615 331.154 690.448 331.35 691.169 331.742C691.891 332.129 692.476 332.668 692.925 333.362C693.374 334.055 693.655 334.853 693.769 335.757H692.201C692.042 334.836 691.664 334.078 691.067 333.481C690.471 332.884 689.672 332.586 688.672 332.586C687.24 332.586 686.132 333.251 685.348 334.58C684.564 335.904 684.169 337.785 684.164 340.222H684.275C684.553 339.705 684.911 339.259 685.348 338.884C685.792 338.504 686.294 338.208 686.857 337.998C687.419 337.782 688.01 337.674 688.63 337.674C689.601 337.674 690.49 337.921 691.297 338.416C692.104 338.904 692.749 339.578 693.232 340.435C693.715 341.288 693.956 342.262 693.956 343.359C693.956 344.399 693.726 345.356 693.266 346.231C692.811 347.106 692.169 347.802 691.34 348.319C690.516 348.836 689.547 349.092 688.434 349.086ZM688.434 347.654C689.195 347.654 689.874 347.461 690.471 347.075C691.073 346.688 691.547 346.171 691.894 345.524C692.24 344.87 692.414 344.149 692.414 343.359C692.414 342.569 692.24 341.853 691.894 341.211C691.547 340.569 691.073 340.058 690.471 339.677C689.874 339.296 689.195 339.106 688.434 339.106C687.854 339.106 687.314 339.225 686.814 339.464C686.314 339.697 685.88 340.018 685.51 340.427C685.147 340.83 684.868 341.293 684.675 341.816C684.488 342.339 684.417 342.887 684.462 343.461C684.525 344.262 684.732 344.981 685.084 345.617C685.442 346.248 685.908 346.745 686.482 347.109C687.061 347.472 687.712 347.654 688.434 347.654ZM706.391 345.609V344.816C706.391 344.163 706.522 343.575 706.783 343.052C707.044 342.524 707.417 342.106 707.9 341.799C708.382 341.492 708.956 341.339 709.621 341.339C710.292 341.339 710.865 341.492 711.343 341.799C711.82 342.106 712.186 342.524 712.442 343.052C712.698 343.575 712.826 344.163 712.826 344.816V345.609C712.826 346.262 712.695 346.85 712.434 347.373C712.178 347.896 711.811 348.313 711.334 348.626C710.857 348.933 710.286 349.086 709.621 349.086C708.945 349.086 708.365 348.933 707.882 348.626C707.405 348.313 707.036 347.896 706.775 347.373C706.519 346.85 706.391 346.262 706.391 345.609ZM707.729 344.816V345.609C707.729 346.251 707.885 346.799 708.198 347.254C708.516 347.703 708.99 347.927 709.621 347.927C710.235 347.927 710.698 347.703 711.01 347.254C711.323 346.799 711.479 346.251 711.479 345.609V344.816C711.479 344.174 711.326 343.629 711.019 343.18C710.712 342.725 710.246 342.498 709.621 342.498C709.002 342.498 708.53 342.725 708.206 343.18C707.888 343.629 707.729 344.174 707.729 344.816ZM697.596 335.424V334.632C697.596 333.978 697.726 333.39 697.988 332.867C698.249 332.345 698.621 331.93 699.104 331.623C699.587 331.31 700.161 331.154 700.826 331.154C701.496 331.154 702.07 331.31 702.547 331.623C703.025 331.93 703.391 332.345 703.647 332.867C703.902 333.39 704.03 333.978 704.03 334.632V335.424C704.03 336.078 703.9 336.668 703.638 337.197C703.382 337.72 703.016 338.134 702.539 338.441C702.061 338.748 701.49 338.901 700.826 338.901C700.15 338.901 699.57 338.748 699.087 338.441C698.61 338.134 698.24 337.72 697.979 337.197C697.723 336.668 697.596 336.078 697.596 335.424ZM698.934 334.632V335.424C698.934 336.066 699.09 336.614 699.402 337.069C699.721 337.518 700.195 337.742 700.826 337.742C701.439 337.742 701.902 337.518 702.215 337.069C702.527 336.614 702.684 336.066 702.684 335.424V334.632C702.684 333.989 702.53 333.444 702.223 332.995C701.917 332.541 701.451 332.313 700.826 332.313C700.206 332.313 699.735 332.541 699.411 332.995C699.093 333.444 698.934 333.989 698.934 334.632ZM698.38 348.847L710.371 331.393H711.88L699.888 348.847H698.38Z" fill="#FFD310"/>
<line x1="686.5" y1="362.418" x2="686.5" y2="399.418" stroke="#FFD310"/>
<mask id="path-21-inside-6_198_2426" fill="white">
<path d="M1100.17 174.847C1100.17 169.325 1104.64 164.847 1110.17 164.847H1172.17C1177.69 164.847 1182.17 169.325 1182.17 174.847V200.847C1182.17 206.37 1177.69 210.847 1172.17 210.847H1110.17C1104.64 210.847 1100.17 206.37 1100.17 200.847V174.847Z"/>
</mask>
<path d="M1100.17 164.847H1182.17H1100.17ZM1182.17 200.847C1182.17 206.923 1177.24 211.847 1171.17 211.847H1111.17C1105.09 211.847 1100.17 206.923 1100.17 200.847C1100.17 205.818 1104.64 209.847 1110.17 209.847H1172.17C1177.69 209.847 1182.17 205.818 1182.17 200.847ZM1100.17 210.847V164.847V210.847ZM1182.17 164.847V210.847V164.847Z" fill="#FFD310" mask="url(#path-21-inside-6_198_2426)"/>
<path d="M1117.57 179.154C1118.3 179.16 1119.01 179.308 1119.69 179.597C1120.37 179.882 1120.99 180.342 1121.54 180.978C1122.1 181.609 1122.53 182.45 1122.86 183.501C1123.18 184.546 1123.34 185.833 1123.34 187.362C1123.34 188.788 1123.22 190.095 1122.97 191.282C1122.72 192.47 1122.34 193.498 1121.84 194.367C1121.35 195.231 1120.72 195.901 1119.97 196.379C1119.22 196.85 1118.34 197.086 1117.33 197.086C1116.4 197.086 1115.56 196.89 1114.84 196.498C1114.12 196.106 1113.53 195.563 1113.08 194.87C1112.63 194.171 1112.35 193.364 1112.25 192.45H1113.81C1113.97 193.382 1114.34 194.149 1114.94 194.751C1115.54 195.353 1116.34 195.654 1117.33 195.654C1118.76 195.654 1119.87 194.989 1120.66 193.66C1121.45 192.33 1121.84 190.438 1121.84 187.984H1121.73C1121.46 188.495 1121.1 188.941 1120.66 189.322C1120.22 189.703 1119.72 190.001 1119.16 190.217C1118.6 190.427 1118 190.532 1117.38 190.532C1116.41 190.532 1115.52 190.288 1114.71 189.799C1113.9 189.305 1113.26 188.632 1112.77 187.779C1112.29 186.921 1112.05 185.944 1112.05 184.847C1112.05 183.813 1112.28 182.864 1112.73 182.001C1113.19 181.132 1113.83 180.438 1114.66 179.921C1115.49 179.399 1116.46 179.143 1117.57 179.154ZM1117.57 180.586C1116.82 180.586 1116.14 180.779 1115.54 181.166C1114.94 181.546 1114.47 182.06 1114.11 182.708C1113.77 183.35 1113.59 184.063 1113.59 184.847C1113.59 185.637 1113.77 186.356 1114.11 187.004C1114.47 187.646 1114.94 188.157 1115.54 188.538C1116.14 188.913 1116.82 189.1 1117.57 189.1C1118.15 189.1 1118.69 188.984 1119.19 188.751C1119.69 188.512 1120.12 188.188 1120.49 187.779C1120.86 187.37 1121.14 186.907 1121.32 186.39C1121.52 185.867 1121.59 185.319 1121.55 184.745C1121.49 183.95 1121.27 183.239 1120.91 182.614C1120.56 181.984 1120.1 181.489 1119.52 181.132C1118.94 180.768 1118.29 180.586 1117.57 180.586ZM1126.98 196.847L1134.93 180.935V180.825H1125.77V179.393H1136.6V180.893L1128.66 196.847H1126.98ZM1145.27 197.086C1144.2 197.086 1143.24 196.893 1142.39 196.507C1141.54 196.114 1140.87 195.572 1140.38 194.879C1139.89 194.185 1139.62 193.387 1139.6 192.484H1141.21C1141.24 193.12 1141.43 193.677 1141.79 194.154C1142.16 194.626 1142.64 194.995 1143.24 195.262C1143.85 195.524 1144.52 195.654 1145.26 195.654C1146.06 195.654 1146.77 195.504 1147.39 195.203C1148.01 194.901 1148.49 194.489 1148.83 193.967C1149.19 193.438 1149.36 192.842 1149.36 192.177C1149.36 191.472 1149.18 190.85 1148.83 190.31C1148.47 189.771 1147.95 189.35 1147.28 189.049C1146.62 188.748 1145.82 188.597 1144.9 188.597H1143.87V187.166H1144.9C1145.65 187.166 1146.32 187.029 1146.9 186.757C1147.49 186.478 1147.95 186.089 1148.28 185.589C1148.62 185.089 1148.78 184.501 1148.78 183.825C1148.78 183.183 1148.64 182.617 1148.35 182.129C1148.06 181.64 1147.65 181.257 1147.12 180.978C1146.6 180.7 1145.99 180.56 1145.29 180.56C1144.61 180.56 1143.99 180.691 1143.43 180.953C1142.87 181.214 1142.41 181.583 1142.07 182.06C1141.73 182.538 1141.54 183.103 1141.52 183.757H1139.98C1140 182.847 1140.25 182.049 1140.73 181.362C1141.21 180.668 1141.85 180.129 1142.65 179.742C1143.45 179.35 1144.33 179.154 1145.31 179.154C1146.33 179.154 1147.22 179.364 1147.97 179.785C1148.72 180.205 1149.3 180.765 1149.71 181.464C1150.13 182.157 1150.33 182.921 1150.33 183.757C1150.33 184.751 1150.06 185.603 1149.52 186.313C1148.99 187.018 1148.26 187.507 1147.34 187.779V187.89C1148.46 188.112 1149.33 188.606 1149.97 189.373C1150.61 190.134 1150.93 191.069 1150.93 192.177C1150.93 193.109 1150.69 193.947 1150.2 194.691C1149.71 195.43 1149.04 196.015 1148.19 196.447C1147.34 196.873 1146.37 197.086 1145.27 197.086ZM1163.53 193.609V192.816C1163.53 192.163 1163.66 191.575 1163.92 191.052C1164.18 190.524 1164.55 190.106 1165.04 189.799C1165.52 189.492 1166.09 189.339 1166.76 189.339C1167.43 189.339 1168 189.492 1168.48 189.799C1168.96 190.106 1169.32 190.524 1169.58 191.052C1169.83 191.575 1169.96 192.163 1169.96 192.816V193.609C1169.96 194.262 1169.83 194.85 1169.57 195.373C1169.31 195.896 1168.95 196.313 1168.47 196.626C1167.99 196.933 1167.42 197.086 1166.76 197.086C1166.08 197.086 1165.5 196.933 1165.02 196.626C1164.54 196.313 1164.17 195.896 1163.91 195.373C1163.66 194.85 1163.53 194.262 1163.53 193.609ZM1164.87 192.816V193.609C1164.87 194.251 1165.02 194.799 1165.33 195.254C1165.65 195.703 1166.13 195.927 1166.76 195.927C1167.37 195.927 1167.83 195.703 1168.15 195.254C1168.46 194.799 1168.62 194.251 1168.62 193.609V192.816C1168.62 192.174 1168.46 191.629 1168.16 191.18C1167.85 190.725 1167.38 190.498 1166.76 190.498C1166.14 190.498 1165.67 190.725 1165.34 191.18C1165.02 191.629 1164.87 192.174 1164.87 192.816ZM1154.73 183.424V182.632C1154.73 181.978 1154.86 181.39 1155.12 180.867C1155.39 180.345 1155.76 179.93 1156.24 179.623C1156.72 179.31 1157.3 179.154 1157.96 179.154C1158.63 179.154 1159.21 179.31 1159.68 179.623C1160.16 179.93 1160.53 180.345 1160.78 180.867C1161.04 181.39 1161.17 181.978 1161.17 182.632V183.424C1161.17 184.078 1161.04 184.668 1160.77 185.197C1160.52 185.72 1160.15 186.134 1159.68 186.441C1159.2 186.748 1158.63 186.901 1157.96 186.901C1157.29 186.901 1156.71 186.748 1156.22 186.441C1155.75 186.134 1155.38 185.72 1155.12 185.197C1154.86 184.668 1154.73 184.078 1154.73 183.424ZM1156.07 182.632V183.424C1156.07 184.066 1156.23 184.614 1156.54 185.069C1156.86 185.518 1157.33 185.742 1157.96 185.742C1158.58 185.742 1159.04 185.518 1159.35 185.069C1159.66 184.614 1159.82 184.066 1159.82 183.424V182.632C1159.82 181.989 1159.67 181.444 1159.36 180.995C1159.05 180.541 1158.59 180.313 1157.96 180.313C1157.34 180.313 1156.87 180.541 1156.55 180.995C1156.23 181.444 1156.07 181.989 1156.07 182.632ZM1155.52 196.847L1167.51 179.393H1169.02L1157.02 196.847H1155.52Z" fill="#FFD310"/>
<line x1="1141.5" y1="210.418" x2="1141.5" y2="247.418" stroke="#FFD310"/>
</svg>
