<svg width="76" height="76" viewBox="0 0 76 76" fill="none" xmlns="http://www.w3.org/2000/svg">
<rect width="76" height="76" rx="17.6" fill="white"/>
<rect x="6" y="6" width="64" height="64" rx="14" fill="#A55FDB"/>
<g filter="url(#filter0_f_2003_21)">
<path d="M38.0324 43.5639L34.7255 43.5414C34.0145 43.4601 33.2858 43.2264 33.2408 42.3716C33.2213 42.0014 33.3374 41.8138 33.5782 41.6292C33.5782 41.6292 33.4643 41.5962 33.3983 41.6292C33.3083 41.6742 33.2633 41.6967 33.2633 41.6967C32.9259 41.7417 33.0608 41.5842 32.8134 41.6067C32.6334 41.6067 32.6616 41.5513 32.6109 41.4943C32.251 41.0893 32.4097 40.8046 32.4984 40.8194C32.6334 40.8419 32.6334 40.9094 32.6784 40.9319C32.7272 40.9563 32.7009 40.7939 32.7009 40.6149C32.7009 40.4799 32.9709 40.5944 33.0383 40.6169C33.0953 40.6359 33.5108 40.6844 33.7582 40.7069C33.802 40.7109 33.8202 40.6589 33.8482 40.6169C34.0731 40.2795 34.1856 40.0095 34.6805 39.3572C34.8159 39.1787 34.9505 39.0197 35.108 38.8847C35.2224 38.7866 35.1436 38.662 35.153 38.3898C35.1619 38.1291 35.1754 37.8274 35.1979 37.5575C35.2149 37.3544 35.1754 37.2875 35.1754 37.2875L35.1305 36.7701C35.0855 36.1402 35.3779 35.6003 35.7153 35.3979C36.0528 35.1954 36.6377 34.8355 36.7952 34.7455C36.9526 34.6555 37.3126 34.2956 37.3126 33.9581C37.3126 33.6207 37.3252 33.6657 37.2901 33.6207C37.0087 33.2608 36.7052 32.3834 36.9076 31.7535C37.1101 31.1237 37.5375 30.8987 38.0324 30.9212M36.0303 39.6946C36.1397 39.5917 36.1653 39.3431 36.2103 39.0422C36.2103 39.0422 36.2659 38.8367 36.3677 38.4123C36.3902 38.2324 36.4464 38.2317 36.4577 38.2998C36.5477 38.8397 36.5927 38.6823 36.5927 38.9972C36.5927 39.4569 36.2664 39.7736 36.1203 40.212C36.0978 40.2795 36.0303 40.5944 35.9628 40.6169C34.9055 40.7081 34.838 40.7519 34.838 40.7519C34.838 40.7519 35.4679 40.2232 36.0303 39.6946Z" stroke="#7EFFFF" stroke-width="0.5"/>
</g>
<g filter="url(#filter1_f_2003_21)">
<path d="M38.0095 43.5639L41.3164 43.5414C42.0274 43.4601 42.7562 43.2264 42.8011 42.3716C42.8206 42.0014 42.7046 41.8138 42.4637 41.6292C42.4637 41.6292 42.5776 41.5962 42.6437 41.6292C42.7337 41.6742 42.7787 41.6967 42.7787 41.6967C43.1161 41.7417 42.9811 41.5842 43.2286 41.6067C43.4085 41.6067 43.3803 41.5513 43.431 41.4943C43.791 41.0893 43.6323 40.8046 43.5435 40.8194C43.4085 40.8419 43.4085 40.9094 43.3635 40.9319C43.3147 40.9563 43.341 40.7939 43.341 40.6149C43.341 40.4799 43.0711 40.5944 43.0036 40.6169C42.9466 40.6359 42.5312 40.6844 42.2837 40.7069C42.24 40.7109 42.2217 40.6589 42.1938 40.6169C41.9688 40.2795 41.8563 40.0095 41.3614 39.3572C41.226 39.1787 41.0915 39.0197 40.934 38.8847C40.8195 38.7866 40.8984 38.662 40.889 38.3898C40.88 38.1291 40.8665 37.8274 40.844 37.5575C40.8271 37.3544 40.8665 37.2875 40.8665 37.2875L40.9115 36.7701C40.9565 36.1402 40.664 35.6003 40.3266 35.3979C39.9892 35.1954 39.4043 34.8355 39.2468 34.7455C39.0893 34.6555 38.7294 34.2956 38.7294 33.9581C38.7294 33.6207 38.7167 33.6657 38.7519 33.6207C39.0333 33.2608 39.3368 32.3834 39.1343 31.7535C38.9319 31.1237 38.5044 30.8987 38.0095 30.9212M40.0117 39.6946C39.9022 39.5917 39.8767 39.3431 39.8317 39.0422C39.8317 39.0422 39.776 38.8367 39.6742 38.4123C39.6517 38.2324 39.5956 38.2317 39.5842 38.2998C39.4943 38.8397 39.4493 38.6823 39.4493 38.9972C39.4493 39.4569 39.7755 39.7736 39.9217 40.212C39.9442 40.2795 40.0117 40.5944 40.0791 40.6169C41.1364 40.7081 41.2039 40.7519 41.2039 40.7519C41.2039 40.7519 40.5741 40.2232 40.0117 39.6946Z" stroke="#7EFFFF" stroke-width="0.5"/>
</g>
<path d="M56.2906 22.0902C56.2906 21.1679 58.0003 13.9692 55.0983 11.5171C51.8382 8.76245 46.9353 12.0733 44.4127 13.8117C32.4 22.0902 22.5017 42.089 21.062 48.6128C20.3022 52.0559 18.8799 58.4661 21.0845 61.3905C22.2886 62.9878 24.7289 63.5052 28.1257 61.9529C30.0333 61.0813 31.2527 60.1308 32.7374 58.9835" stroke="#FFD310" stroke-width="1.2"/>
<path d="M34.358 13.9685C31.2546 11.4968 27.7913 9.41015 24.8003 11.0113C22.0342 12.4921 21.9673 17.3683 21.9218 18.2278C21.4272 27.5628 30.4675 51.5073 43.8481 61.5265C46.3797 63.4221 49.2904 64.5941 51.7641 63.4464C52.8886 62.9247 54.0637 61.2454 54.5526 58.6134C55.7744 52.037 52.079 40.8261 48.6832 33.8303" stroke="#14D6A1" stroke-width="1.2"/>
<path d="M60.8123 45.2836C64.1192 43.7988 67.471 41.7517 67.9435 38.6698C68.54 34.7779 64.2687 32.2433 62.0945 31.0436C53.4111 26.2519 32.3549 22.4726 15.4605 28.6815C11.9007 29.9897 9.04374 31.7184 8.12687 35.1379C7.29452 38.2422 10.7364 41.4817 13.2334 42.5616" stroke="#622C8B" stroke-width="1.2"/>
<defs>
<filter id="filter0_f_2003_21" x="32.0685" y="30.6022" width="6.04278" height="13.2791" filterUnits="userSpaceOnUse" color-interpolation-filters="sRGB">
<feFlood flood-opacity="0" result="BackgroundImageFix"/>
<feBlend mode="normal" in="SourceGraphic" in2="BackgroundImageFix" result="shape"/>
<feGaussianBlur stdDeviation="0.0337438" result="effect1_foregroundBlur_2003_21"/>
</filter>
<filter id="filter1_f_2003_21" x="37.9307" y="30.6022" width="6.04278" height="13.2791" filterUnits="userSpaceOnUse" color-interpolation-filters="sRGB">
<feFlood flood-opacity="0" result="BackgroundImageFix"/>
<feBlend mode="normal" in="SourceGraphic" in2="BackgroundImageFix" result="shape"/>
<feGaussianBlur stdDeviation="0.0337438" result="effect1_foregroundBlur_2003_21"/>
</filter>
</defs>
</svg>
