<svg width="76" height="76" viewBox="0 0 76 76" fill="none" xmlns="http://www.w3.org/2000/svg">
<rect y="0.614136" width="76" height="75.3859" rx="17.3558" fill="white"/>
<path d="M51.6359 55.2957L50.7535 55.5898L50.9862 56.4904C51.115 56.9888 51.3925 57.5498 51.7016 58.0857C52.0204 58.6384 52.4137 59.2332 52.8238 59.8142C53.4574 60.7119 54.1505 61.6039 54.7128 62.299C54.4634 62.1639 54.2013 62.0179 53.9294 61.863C52.5059 61.0523 50.876 60.0357 49.4784 59.164L49.4469 59.1443C48.7489 58.709 48.1073 58.309 47.5888 57.9962C47.0958 57.6987 46.6438 57.4364 46.3607 57.3165L45.9842 57.157L45.6042 57.3079C40.1262 59.4836 36.0871 58.8064 30.2829 57.2707L29.8429 57.1543L29.4668 57.4106C27.1389 58.9969 23.6953 61.2084 21.3496 62.3995C21.2614 62.4443 21.1754 62.4873 21.0917 62.5285C22.9324 60.2146 23.9633 58.7702 24.5066 57.8823C24.7801 57.4353 24.9753 57.0582 25.0639 56.7489C25.1002 56.6219 25.1758 56.3246 25.0736 55.997C25.0127 55.8017 24.8843 55.586 24.6562 55.4303C24.5419 55.3523 24.4257 55.3052 24.3178 55.2779C24.3073 55.273 24.2951 55.2672 24.2809 55.2603C24.1869 55.2147 24.043 55.14 23.8543 55.0346C23.4785 54.8246 22.945 54.5041 22.3067 54.0741C21.0292 53.2135 19.3487 51.9256 17.6786 50.2244C14.3322 46.8157 11.0944 41.8208 11.0944 35.3145C11.0944 29.1177 13.5485 23.6673 18.0949 19.7526C22.651 15.8295 29.3789 13.3914 38 13.3914C46.6467 13.3914 53.3716 15.5932 57.9166 19.388C62.4408 23.1653 64.9056 28.6028 64.9056 35.3145C64.9056 42.0018 62.287 46.7505 59.3164 49.9587C56.3231 53.1915 52.9815 54.8472 51.6359 55.2957ZM19.4382 63.1694C19.4383 63.1693 19.44 63.1692 19.4433 63.1692C19.4398 63.1694 19.4382 63.1694 19.4382 63.1694ZM20.0808 63.9805C20.079 63.9891 20.0774 63.9936 20.0771 63.9938C20.0768 63.994 20.0778 63.9897 20.0808 63.9805Z" fill="#A55FDB" stroke="#A55FDB" stroke-width="1.99301"/>
<path d="M19.9658 34.5441V22.9484H22.4175V32.5228H27.3887V34.5441H19.9658ZM32.7549 34.7139C31.8603 34.7139 31.0903 34.5327 30.4448 34.1704C29.8031 33.8042 29.3087 33.2871 28.9614 32.619C28.6141 31.9471 28.4405 31.1526 28.4405 30.2353C28.4405 29.3407 28.6141 28.5556 28.9614 27.8799C29.3087 27.2043 29.7975 26.6777 30.4278 26.3003C31.062 25.9228 31.8056 25.7341 32.6587 25.7341C33.2324 25.7341 33.7665 25.8265 34.261 26.0115C34.7592 26.1927 35.1933 26.4663 35.5632 26.8325C35.9369 27.1986 36.2276 27.6591 36.4352 28.214C36.6428 28.7651 36.7466 29.4106 36.7466 30.1504V30.8128H29.403V29.3181H34.4761C34.4761 28.9708 34.4006 28.6632 34.2497 28.3952C34.0987 28.1272 33.8892 27.9177 33.6212 27.7667C33.357 27.612 33.0493 27.5346 32.6983 27.5346C32.3321 27.5346 32.0075 27.6195 31.7244 27.7894C31.4451 27.9554 31.2262 28.18 31.0676 28.4631C30.9091 28.7425 30.828 29.0539 30.8242 29.3974V30.8185C30.8242 31.2488 30.9034 31.6206 31.062 31.9339C31.2243 32.2472 31.4527 32.4888 31.7471 32.6586C32.0415 32.8285 32.3907 32.9134 32.7945 32.9134C33.0625 32.9134 33.3079 32.8757 33.5306 32.8002C33.7533 32.7247 33.9439 32.6115 34.1025 32.4605C34.261 32.3095 34.3818 32.1245 34.4648 31.9056L36.6956 32.0528C36.5824 32.5888 36.3502 33.0569 35.9992 33.457C35.6519 33.8533 35.2028 34.1628 34.6517 34.3855C34.1043 34.6045 33.4721 34.7139 32.7549 34.7139ZM42.771 25.8473V27.6591H37.5337V25.8473H42.771ZM38.7227 23.7637H41.1347V31.8716C41.1347 32.0943 41.1687 32.268 41.2366 32.3925C41.3046 32.5133 41.399 32.5982 41.5197 32.6473C41.6443 32.6964 41.7877 32.7209 41.9501 32.7209C42.0633 32.7209 42.1765 32.7115 42.2898 32.6926C42.403 32.67 42.4898 32.653 42.5502 32.6417L42.9296 34.4365C42.8088 34.4742 42.6389 34.5176 42.42 34.5667C42.2011 34.6196 41.935 34.6516 41.6217 34.663C41.0404 34.6856 40.5308 34.6082 40.0929 34.4308C39.6589 34.2534 39.321 33.9779 39.0794 33.6042C38.8379 33.2305 38.719 32.7587 38.7227 32.1887V23.7637ZM46.5774 22.9484V24.1714C46.5774 24.5186 46.5095 24.8735 46.3736 25.2358C46.2415 25.5944 46.0641 25.9341 45.8414 26.255C45.6187 26.572 45.3752 26.8419 45.111 27.0646L44.0465 26.4362C44.2353 26.138 44.4013 25.8077 44.5448 25.4453C44.692 25.0829 44.7656 24.6621 44.7656 24.1827V22.9484H46.5774ZM54.1547 28.3272L51.9465 28.4631C51.9088 28.2744 51.8276 28.1045 51.703 27.9536C51.5785 27.7988 51.4143 27.6761 51.2104 27.5855C51.0104 27.4912 50.7707 27.444 50.4914 27.444C50.1177 27.444 49.8025 27.5232 49.5458 27.6818C49.2892 27.8365 49.1608 28.0441 49.1608 28.3046C49.1608 28.5122 49.2439 28.6877 49.4099 28.8312C49.576 28.9746 49.861 29.0897 50.2649 29.1765L51.8389 29.4936C52.6844 29.6672 53.3148 29.9466 53.73 30.3316C54.1452 30.7166 54.3528 31.2224 54.3528 31.849C54.3528 32.4189 54.1849 32.9191 53.8489 33.3494C53.5167 33.7797 53.06 34.1156 52.4787 34.3572C51.9012 34.595 51.235 34.7139 50.4801 34.7139C49.3288 34.7139 48.4116 34.4742 47.7283 33.9949C47.0489 33.5117 46.6507 32.8549 46.5337 32.0245L48.906 31.8999C48.9778 32.251 49.1514 32.519 49.4269 32.7039C49.7025 32.8851 50.0554 32.9757 50.4857 32.9757C50.9085 32.9757 51.2482 32.8946 51.5049 32.7322C51.7653 32.5662 51.8974 32.3529 51.9012 32.0924C51.8974 31.8735 51.805 31.6942 51.6238 31.5546C51.4426 31.4111 51.1633 31.3017 50.7858 31.2262L49.2797 30.9261C48.4304 30.7562 47.7982 30.4618 47.383 30.0428C46.9715 29.6238 46.7658 29.0897 46.7658 28.4405C46.7658 27.8818 46.9168 27.4006 47.2188 26.9967C47.5245 26.5928 47.9529 26.2814 48.504 26.0625C49.0589 25.8435 49.7081 25.7341 50.4517 25.7341C51.5502 25.7341 52.4146 25.9662 53.0449 26.4305C53.6791 26.8948 54.049 27.527 54.1547 28.3272ZM28.25 41.8473V43.6591H23.0127V41.8473H28.25ZM24.2018 39.7637H26.6137V47.8716C26.6137 48.0943 26.6477 48.268 26.7157 48.3925C26.7836 48.5133 26.878 48.5982 26.9988 48.6473C27.1233 48.6964 27.2668 48.7209 27.4291 48.7209C27.5423 48.7209 27.6555 48.7115 27.7688 48.6926C27.882 48.67 27.9688 48.653 28.0292 48.6417L28.4086 50.4365C28.2878 50.4742 28.1179 50.5176 27.899 50.5667C27.6801 50.6196 27.414 50.6516 27.1007 50.663C26.5194 50.6856 26.0098 50.6082 25.5719 50.4308C25.1379 50.2534 24.8 49.9779 24.5585 49.6042C24.3169 49.2305 24.198 48.7587 24.2018 48.1887V39.7637ZM32.1258 50.7083C31.5709 50.7083 31.0764 50.612 30.6424 50.4195C30.2083 50.2232 29.8648 49.9345 29.6119 49.5532C29.3628 49.1682 29.2382 48.6888 29.2382 48.1151C29.2382 47.6319 29.3269 47.2262 29.5043 46.8978C29.6817 46.5694 29.9233 46.3052 30.229 46.1051C30.5348 45.905 30.882 45.7541 31.2708 45.6521C31.6634 45.5502 32.0748 45.4785 32.5051 45.437C33.0109 45.3841 33.4186 45.3351 33.7281 45.2898C34.0376 45.2407 34.2622 45.169 34.4019 45.0746C34.5416 44.9803 34.6114 44.8406 34.6114 44.6556V44.6217C34.6114 44.2631 34.4981 43.9856 34.2717 43.7894C34.049 43.5931 33.7319 43.4949 33.3205 43.4949C32.8864 43.4949 32.541 43.5912 32.2843 43.7837C32.0276 43.9724 31.8578 44.2102 31.7747 44.4971L29.5439 44.3159C29.6572 43.7875 29.8799 43.3307 30.2121 42.9457C30.5442 42.5569 30.9726 42.2587 31.4973 42.0511C32.0258 41.8398 32.6373 41.7341 33.3318 41.7341C33.8149 41.7341 34.2773 41.7907 34.719 41.9039C35.1644 42.0172 35.5588 42.1927 35.9023 42.4305C36.2496 42.6683 36.5232 42.974 36.7233 43.3477C36.9234 43.7176 37.0234 44.1612 37.0234 44.6783V50.5441H34.736V49.3381H34.668C34.5283 49.6098 34.3415 49.8495 34.1075 50.0571C33.8734 50.261 33.5922 50.4214 33.2638 50.5384C32.9354 50.6516 32.5561 50.7083 32.1258 50.7083ZM32.8165 49.0436C33.1714 49.0436 33.4847 48.9738 33.7564 48.8342C34.0282 48.6907 34.2415 48.4982 34.3962 48.2566C34.551 48.0151 34.6284 47.7414 34.6284 47.4357V46.5128C34.5529 46.5618 34.4491 46.6071 34.317 46.6486C34.1886 46.6864 34.0433 46.7222 33.881 46.7562C33.7187 46.7864 33.5564 46.8147 33.3941 46.8412C33.2318 46.8638 33.0845 46.8846 32.9524 46.9034C32.6693 46.945 32.4221 47.011 32.2107 47.1016C31.9993 47.1922 31.8351 47.3149 31.7181 47.4696C31.6011 47.6206 31.5426 47.8093 31.5426 48.0358C31.5426 48.3642 31.6615 48.6152 31.8993 48.7889C32.1409 48.9587 32.4466 49.0436 32.8165 49.0436ZM41.1313 38.9484V50.5441H38.7193V38.9484H41.1313ZM45.0735 48.0415L45.0792 45.1482H45.4302L48.2159 41.8473H50.9846L47.2421 46.2183H46.6702L45.0735 48.0415ZM42.888 50.5441V38.9484H45.3V50.5441H42.888ZM48.3235 50.5441L45.7643 46.7562L47.3723 45.052L51.1488 50.5441H48.3235Z" fill="white"/>
</svg>
