<svg width="24" height="22" viewBox="0 0 24 22" fill="none" xmlns="http://www.w3.org/2000/svg">
<circle cx="12" cy="11" r="11" fill="url(#paint0_radial_33_118825)" fill-opacity="0.6"/>
<g filter="url(#filter0_f_33_118825)">
<path d="M12.0241 12.3206L10.8102 12.3123C10.5492 12.2825 10.2817 12.1967 10.2652 11.8829C10.2581 11.747 10.3007 11.6781 10.3891 11.6104C10.3891 11.6104 10.3473 11.5983 10.323 11.6104C10.29 11.6269 10.2735 11.6352 10.2735 11.6352C10.1496 11.6517 10.1992 11.5939 10.1083 11.6021C10.0423 11.6021 10.0526 11.5818 10.034 11.5609C9.90189 11.4122 9.96015 11.3077 9.99273 11.3131C10.0423 11.3214 10.0423 11.3462 10.0588 11.3544C10.0767 11.3634 10.067 11.3038 10.067 11.238C10.067 11.1885 10.1661 11.2305 10.1909 11.2388C10.2118 11.2458 10.3643 11.2636 10.4552 11.2718C10.4712 11.2733 10.4779 11.2542 10.4882 11.2388C10.5708 11.1149 10.6121 11.0158 10.7937 10.7764C10.8434 10.7109 10.8928 10.6525 10.9506 10.603C10.9926 10.567 10.9637 10.5212 10.9671 10.4213C10.9704 10.3256 10.9754 10.2149 10.9836 10.1158C10.9899 10.0412 10.9754 10.0167 10.9754 10.0167L10.9589 9.82675C10.9424 9.59553 11.0497 9.39735 11.1736 9.32303C11.2974 9.24871 11.5121 9.11659 11.5699 9.08356C11.6277 9.05053 11.7599 8.9184 11.7599 8.79454C11.7599 8.67067 11.7645 8.68719 11.7516 8.67067C11.6483 8.53855 11.5369 8.21651 11.6112 7.98529C11.6855 7.75408 11.8424 7.6715 12.0241 7.67976M11.2892 10.9002C11.3293 10.8625 11.3387 10.7712 11.3552 10.6608C11.3552 10.6608 11.3757 10.5853 11.413 10.4296C11.4213 10.3635 11.4419 10.3632 11.4461 10.3883C11.4791 10.5865 11.4956 10.5286 11.4956 10.6443C11.4956 10.813 11.3759 10.9292 11.3222 11.0902C11.314 11.1149 11.2892 11.2305 11.2644 11.2388C10.8763 11.2723 10.8515 11.2884 10.8515 11.2884C10.8515 11.2884 11.0827 11.0943 11.2892 10.9002Z" stroke="#7EFFFF" stroke-width="0.132122"/>
</g>
<g filter="url(#filter1_f_33_118825)">
<path d="M12.0157 12.3206L13.2296 12.3123C13.4906 12.2825 13.7581 12.1967 13.7746 11.8829C13.7817 11.747 13.7391 11.6781 13.6507 11.6104C13.6507 11.6104 13.6925 11.5983 13.7168 11.6104C13.7498 11.6269 13.7663 11.6352 13.7663 11.6352C13.8902 11.6517 13.8406 11.5939 13.9315 11.6021C13.9975 11.6021 13.9872 11.5818 14.0058 11.5609C14.1379 11.4122 14.0796 11.3077 14.0471 11.3131C13.9975 11.3214 13.9975 11.3462 13.981 11.3544C13.9631 11.3634 13.9727 11.3038 13.9727 11.238C13.9727 11.1885 13.8737 11.2305 13.8489 11.2388C13.828 11.2458 13.6755 11.2636 13.5846 11.2718C13.5686 11.2733 13.5619 11.2542 13.5516 11.2388C13.469 11.1149 13.4277 11.0158 13.2461 10.7764C13.1964 10.7109 13.147 10.6525 13.0892 10.603C13.0472 10.567 13.0761 10.5212 13.0727 10.4213C13.0694 10.3256 13.0644 10.2149 13.0562 10.1158C13.0499 10.0412 13.0644 10.0167 13.0644 10.0167L13.0809 9.82675C13.0974 9.59553 12.9901 9.39735 12.8662 9.32303C12.7424 9.24871 12.5277 9.11659 12.4699 9.08356C12.4121 9.05053 12.2799 8.9184 12.2799 8.79454C12.2799 8.67067 12.2753 8.68719 12.2882 8.67067C12.3915 8.53855 12.5029 8.21651 12.4286 7.98529C12.3542 7.75408 12.1974 7.6715 12.0157 7.67976M12.7506 10.9002C12.7105 10.8625 12.7011 10.7712 12.6846 10.6608C12.6846 10.6608 12.6641 10.5853 12.6268 10.4296C12.6185 10.3635 12.5979 10.3632 12.5937 10.3883C12.5607 10.5865 12.5442 10.5286 12.5442 10.6443C12.5442 10.813 12.6639 10.9292 12.7176 11.0902C12.7258 11.1149 12.7506 11.2305 12.7754 11.2388C13.1635 11.2723 13.1883 11.2884 13.1883 11.2884C13.1883 11.2884 12.9571 11.0943 12.7506 10.9002Z" stroke="#7EFFFF" stroke-width="0.132122"/>
</g>
<path d="M18.8101 4.99258C18.8101 4.6759 19.459 2.20425 18.3576 1.36234C17.1202 0.416536 15.2593 1.55332 14.3019 2.15018C9.74237 4.99256 5.98547 11.8591 5.43903 14.0991C5.15064 15.2812 4.61079 17.4821 5.44756 18.4862C5.90457 19.0346 6.83078 19.2123 8.12008 18.6793C8.84411 18.38 9.30692 18.0537 9.87045 17.6598" stroke="#FFD310" stroke-width="0.3"/>
<path d="M10.6753 1.45661C9.53612 0.549322 8.26485 -0.216646 7.16695 0.371094C6.15158 0.914645 6.12703 2.70457 6.11031 3.02008C5.92874 6.44673 9.24723 15.2361 14.1589 18.9139C15.0882 19.6097 16.1566 20.0399 17.0646 19.6187C17.4774 19.4272 17.9088 18.8107 18.0882 17.8446C18.5367 15.4306 17.1802 11.3153 15.9337 8.74736" stroke="#14D6A1" stroke-width="0.3"/>
<path d="M20.386 12.9515C21.5999 12.4065 22.8303 11.655 23.0037 10.5237C23.2227 9.09509 21.6548 8.16472 20.8567 7.72433C17.6692 5.96544 9.94006 4.57815 3.73857 6.85727C2.43186 7.33749 1.38313 7.97205 1.04657 9.22726C0.741038 10.3668 2.00446 11.5559 2.92106 11.9523" stroke="#622C8B" stroke-width="0.3"/>
<defs>
<filter id="filter0_f_33_118825" x="9.8606" y="7.58826" width="2.19127" height="4.82323" filterUnits="userSpaceOnUse" color-interpolation-filters="sRGB">
<feFlood flood-opacity="0" result="BackgroundImageFix"/>
<feBlend mode="normal" in="SourceGraphic" in2="BackgroundImageFix" result="shape"/>
<feGaussianBlur stdDeviation="0.0123865" result="effect1_foregroundBlur_33_118825"/>
</filter>
<filter id="filter1_f_33_118825" x="11.9879" y="7.58826" width="2.19127" height="4.82323" filterUnits="userSpaceOnUse" color-interpolation-filters="sRGB">
<feFlood flood-opacity="0" result="BackgroundImageFix"/>
<feBlend mode="normal" in="SourceGraphic" in2="BackgroundImageFix" result="shape"/>
<feGaussianBlur stdDeviation="0.0123865" result="effect1_foregroundBlur_33_118825"/>
</filter>
<radialGradient id="paint0_radial_33_118825" cx="0" cy="0" r="1" gradientUnits="userSpaceOnUse" gradientTransform="translate(12 11) rotate(90) scale(11)">
<stop stop-color="#14D6A1"/>
<stop offset="1" stop-opacity="0"/>
</radialGradient>
</defs>
</svg>
